<svg xmlns="http://www.w3.org/2000/svg" viewBox="0 0 29.73 72.98"><defs><style>.cls-1{fill:#8ec6ec;}</style></defs><g id="레이어_2" data-name="레이어 2"><g id="레이어_1-2" data-name="레이어 1"><path class="cls-1" d="M29,67.93c-1,2.19-2.87,4.46-5,4.6-.54,0-1.09-.1-1.62,0s-1.2.45-1.83.47a2.57,2.57,0,0,1-1.68-.71c-1.26-1.06-1.72-2.58-2.64-3.89s-2-2.42-2.26-4a7,7,0,0,1,.67-3.94,8.83,8.83,0,0,1,3.45-4.38,5,5,0,0,1,5.77.45c1,.9,1.53,2.23,2.54,3.1.47.41,1,.7,1.5,1.1a5.61,5.61,0,0,1,1.76,5.07A8.25,8.25,0,0,1,29,67.93Z"/><path class="cls-1" d="M23.78,39.73a2.68,2.68,0,0,1-.33.18A15.21,15.21,0,0,0,21.17,41c-.82.61-1.27,1.63-2.15,2.16a3.06,3.06,0,0,1-3.56-.57,5.82,5.82,0,0,1-1.56-3.47c-.47-3.41.51-8.42,4.09-9.93s8.18,3.51,8,6.87A4.74,4.74,0,0,1,23.78,39.73Z"/><path class="cls-1" d="M5.23,22.25l-.32-.11C1.52,21.29-.51,17,.11,13.3A5.16,5.16,0,0,1,1.8,10.12a3.27,3.27,0,0,1,3.43-.53,6.29,6.29,0,0,1,1.94,1.87c.88,1.06,1.88,2,2.7,3.11a6.77,6.77,0,0,1,1.5,3.77c.05,2.46-3.06,5.24-5.53,4.2Z"/><path class="cls-1" d="M13.11,5.55l-.21-.08c-.26-.06-.54,0-.8-.07A1.66,1.66,0,0,1,11,4.47,3.85,3.85,0,0,1,10.65,3a3.91,3.91,0,0,1,.13-1.56c.78-2.25,4.06-1.57,5.11,0a3.6,3.6,0,0,1-.23,3.84,2,2,0,0,1-2.15.42Z"/><path class="cls-1" d="M11.31,46.66a4.55,4.55,0,0,1-.41,5.12,2.22,2.22,0,0,1-2.23,1c-.93-.23-1.45-1.18-1.87-2A8,8,0,0,1,5.87,48c-.29-3.67,2.91-4.94,5-2Z"/></g></g></svg>