<?xml version="1.0" encoding="utf-8"?>
<!-- Generator: Adobe Illustrator 25.0.1, SVG Export Plug-In . SVG Version: 6.00 Build 0)  -->
<svg version="1.1"
	 id="svg2" inkscape:version="0.91 r13725" sodipodi:docname="The_Simpsons_Logo.svg" xmlns:cc="http://creativecommons.org/ns#" xmlns:dc="http://purl.org/dc/elements/1.1/" xmlns:inkscape="http://www.inkscape.org/namespaces/inkscape" xmlns:rdf="http://www.w3.org/1999/02/22-rdf-syntax-ns#" xmlns:sodipodi="http://sodipodi.sourceforge.net/DTD/sodipodi-0.dtd" xmlns:svg="http://www.w3.org/2000/svg"
	 xmlns="http://www.w3.org/2000/svg" xmlns:xlink="http://www.w3.org/1999/xlink" x="0px" y="0px" viewBox="0 0 300 133"
	 style="enable-background:new 0 0 300 133;" xml:space="preserve">
<style type="text/css">
	.st0{fill:#EE3133;}
</style>
<sodipodi:namedview  bordercolor="#666666" borderopacity="1" gridtolerance="10" guidetolerance="10" id="namedview48" inkscape:current-layer="g4" inkscape:cx="145.19177" inkscape:cy="65.719167" inkscape:pageopacity="0" inkscape:pageshadow="2" inkscape:window-height="980" inkscape:window-maximized="1" inkscape:window-width="1920" inkscape:window-x="0" inkscape:window-y="34" inkscape:zoom="3.5595182" objecttolerance="10" pagecolor="#ffffff" showgrid="false">
	</sodipodi:namedview>
<g id="g4" transform="matrix(0.7239155,0,0,0.72377758,-102.33486,-291.93139)">
	<path id="path6" d="M386.4,403.3c-2.9,0-5.8,0.6-8.3,1.8c-3.7,2.4-8.2,3.7-11.7,6.3c-6.4,7.6-12.1,15.5-13.3,24.9
		c-1.7-7.7,0.3-16.3-1.2-24.4c-0.9-0.8-1.1-1.9-2.2-2.8c-2.1-0.7-4.6-1.5-6.8-0.4c-2.1,0.9-1.6,4-4.3,4.4
		c-8.1,7.3,1.3,16.8-1.1,25.3c-7.8,1-0.8-7.2-5.1-9.7c1.2-3.8,0.8-8.7,0-12.6c-1.8-2.1-4.5-5.1-7.6-3.3c-1.8,1.7-2.1,4-3.6,5.7
		c-6.3-0.3-0.9,8.9-7.2,6.5c-2.9,3.7-8.8,1.4-12.3,4c-2.2-2.4,0.2-5.1-0.8-7.9c-3.2-7.2-8.8,0.6-12.8,0.4c-3.3,1.3-3.8,5-3.8,8
		c-6,2-12.9-1.7-19,1c-3.1,0.7-4.1,3.8-4.8,6.1c-1.6,3.5,1.2,6,3.3,8.6c3.2,2.4,7,3,10.9,3.5c2.8,1.1,6.9-0.8,9.2,1.3
		c0.3,6.9-1.8,16.8,2.9,22.7c2.8,1.7,6.3,1.6,9.2-0.3c9.3-5.1,3.6-15.9,5.4-23.8c0.2-0.3,0.5-0.5,0.7-0.8c2.5,0.7,4.6-0.7,6.7-1.4
		c6.7-1.7,0.8,6.7,5.7,8.8c6,2.2,2.8,10.1,5,14.8c2,2.9,6,4,9.3,3.3c1.4-0.7,2.5-2.1,1.9-3.6c4.6-3.5,2.6-10.3,2.7-15
		c1.4,1,3.7-0.5,4.8,1c-0.8,5.5,0.2,9.6,1.3,14.5c1.5,2.6,4.2,2,6.7,2.6c2.4-0.8,5-1.7,6.5-3.3c0.8-1.7,2.8-4.1,0.7-5.6
		c3.4-5.9-4.3-12.1,1.1-17.8c0.6,1.7,0.6,3.3,1,5c5.1,6.3,11.4,14.9,20.9,15.5c4.8,1.3,9.7,1.7,14.5,0.7c3.1,0.2,5.1-2.2,7.9-2.7
		c6.1-3.5,15.3-7.8,13.4-16.6c1.7-1.5,2.1-3.5,2.4-5.6c-1.1-1.4-2.9-3.4-4.8-3.7c-3.9-1.6-7,2.7-8.8,5c-5.5,0.7-9.2,5.8-14.9,5
		c1-1.3,2.6-1.1,3.2-2.6c4.8-1.8,8.2-6.7,9.9-11c-0.9-7.7,3-19.1-3-26.1c-2.7-1.8-4.3-3.3-6.8-5.4
		C388.4,403.4,387.4,403.4,386.4,403.3z M380.9,424.8c1.3,0.9,4.9,1.4,3.1,3.8c-3.5-1-6.4,6.2-8.3,1.4
		C378.7,429.5,378,425.4,380.9,424.8z"/>
	<path id="path8" class="st0" d="M385.3,405c-9.8,0.3-13.9,11.2-19,17.5c-1.1,5.6-7.3,10.8-3,16.6c0.8,3.3,0.4,7.1,1.6,10.3
		c4.9,3.9,7,11.2,14.9,9.6c5.3,2.6,10.9-0.5,16-1.4c5.3-5.3,15.5-7.3,16.1-15.1c-1.2-0.6-2.7-1.9-4.2-2.2c-2.6,0.8-3,3.4-5.6,5.3
		c-7.6,0-11.5,7.3-19.3,6.6c-3-1.3-7.3-1.1-9.3-4.4c-0.3-1.6-1.7-5,1-5.9c10.6,2.1,16.9-7.5,22.3-13.7c0.2-3.9,1-7.8,0.5-11.8
		c-0.8-2.3-2.1-4.9-2.3-7c-2.4-0.1-4.1-3.1-6.3-4.1C387.4,405.1,386.3,405,385.3,405z M385.2,413.6c1.6-0.1,3.1,0.6,4.3,2.6
		c3.5,5.8-3.3,10-5,15.1c-4-0.1-7.6,5.2-11.6,1.2c-1.2-4.2,3.2-8,3.7-12.4C378.1,417.7,381.7,413.8,385.2,413.6z"/>
	<path id="path10" class="st0" d="M349.8,412.6c1.9,9.5-2.7,20.1,3.4,27.7c1.3,2.4-1.6,4.3-2.1,6.3c-2.3,5.2,1.2,9.8,0.9,15.1
		c-1.1,2.2-3.4,1.9-5.8,1.7c-2.3-1.2-0.7-4.8-1.8-6.7c-1.9-3,1.9-9.9-4.5-9.7c-1.7,1.5-4.5,0.6-6.7,1.1c-5.5,5.6,1.6,12.8-3.5,18.7
		c-1.9,0.6-3.3-0.8-4.2-2.2c0.2-5.1-1-9.6-2.1-14.2c-1.4-1.7-6.3-2.1-4-5.8c0.6-3.4,5.6-3.3,5.6-6.9c1.3-7.1,0-14.1,0.1-21.2
		c1-1.5,2.3-1.9,4.1-1.8c0.1,4.1,3.6,8.2,0.8,12.3c2.2,3.6,0.3,7.3,1.6,11.2c1.9,3.1,6.4,2.2,9.6,1.7c1-0.7,2.1-0.9,2.9-2.1
		c-2.2-7.3-0.3-17.5-1.3-25.9C344.3,409.4,348.7,409.8,349.8,412.6z"/>
	<path id="path14" class="st0" d="M298.7,426.8c-1.3,1,1,1.9-0.2,2.8c5.3,4.1,11.2-1.4,16.9-2c1.9,1.3,1.6,4.3,1.1,6.1
		c-4,4.6-10,7-16.4,7.3c-3,1.5-2.6,4.8-1.8,7.1c1.2,5.5,0.1,12.6,0.1,18c-0.6,2.2-2.9,2.2-4.4,3.4c-2.9-1.3-3.6-4.9-2.7-7.8
		c0.3-6.5,0.2-10.8-0.6-17.3c-3.7-4.9-11.2-1.2-16.1-3.7c-3.3,0.9-5.8-1.1-7.6-3c-1.1-1.5,0.5-2.8,0.8-4.3c1.5-1.2,3.9-1.8,5.8-1
		c5.7-1,13.8,3.3,17.2-2.9c0.6-2.4-1.8-6.6,2.4-7.1c1.6-0.6,3.4-2.9,4.9-1.5C297.7,423.2,299.2,424.1,298.7,426.8L298.7,426.8z"/>
	<path id="path18" d="M213.1,447.1c-19.3,2.5-34.2,12-50.4,21.1c-3.3,4.1-8.3,5.5-10.5,10.6c-6.1,4.2-7.9,11.1-10.1,17.3
		c-4.7,18.4,13.3,29,26.3,37.5c5.6,5.6,13.8,8.2,19.1,13.7c7.8,4,16.2,6.2,23.6,11c-0.3,0.3-0.8,0.8-1.2,1.2c-6,0.6-13.7,0-20.4-0.1
		c-7.2,2.4-14.7,0.5-21.2-2.1c-4.5-0.9-9.5,0.7-12.3,3.8c-4.5-0.2-7.5,2.9-9.3,5.7c-1.1,3.2,0.4,6.6,1.2,9.5
		c1.3,2.9,4.7,4.4,7.6,5.1c14.1,6.4,29.2,2.1,44.7,4.9c5.9,1.8,12.1,0.9,17.8-1.5c7.3-3,17.4-6.7,17.6-16c4.7-1.2,2.3-13.1,7.8-6.5
		c3.1,0.8,6.7,2.8,10.1,0.7c1.6-2.1,4.7-3.4,3.4-6.3c4.1-1.3,3.6-5.5,5.9-8.1c2.2,2.7,3.8,6.3,6.5,8.4c3.3,0,5.5,2.8,9.6,1.6
		c2.8-1.9,4.9-4.6,5.2-7.7c3.9-2,1.8-7.3,5.1-9.7c0.6,3.1,4.6,3.4,6.8,5.3c7.7-0.4,8.5-8.3,11.7-13c0.2,7.5-5.1,17.4,0.8,24.1
		c2.7,2.5,5.9,3.8,10,3.1c0.6-1.2,3.5-0.3,2.6-2.4c3.6-2.1,1.3-6.1,2.9-8.8c2.1-4.1,0.2-9.5,2.8-13.5c10.6,0.7,2.7,11.6,7.7,16.3
		c1.6,2.3,5.2,3.6,8.7,2.8c7.7-1.9,6.2-10.5,7.7-16.3c5,0.6,9.6-1.6,14.4-2.1c2.1-0.7,3.6-2.8,6.1-2.2c4.8-2.9,3.3-8.8,4.6-13.4
		c2.2,3,4.6,6.9,9.1,7.9c1.1,1.5,1.5,3.6,0.9,4.7c-2.5,0.9-5.3,1.5-7.7,2.6c-0.5,0.5-1.1,1-0.8,1.6c-3.8,0.8-7.1,3.4-8,7
		c0.3,3-0.6,7.3,2.7,9.2c7.6,3.2,16.8,4.7,24.7,0.8c4.7-3.8,14.7-5.1,12.9-13.4c2.7,3.9,3.2,8.1,7.5,11c4.5,5.3,10.9,4.4,17,3.1
		c1.9-0.7,2.3-1.9,4.4-2.1c4.9-3.6,6.3-8.7,10.5-12.2c1.7-1.8,1.4-4.6,3.1-6c1.9,5.7-3,9.8-1.5,15.8c0.4,2.3,2.4,3.7,4.6,4.2
		c2.8-0.8,6.6-1.6,6.9-4.9c4.1-2.1,5.7-6,8.5-8.6c2.8,3.7,4.5,7.7,8.2,10.4c6.6,0.6,7.7-6.3,12.7-9.4c4.1-4.7,3.3-13,2.5-19.5
		c0.4-0.3,0.5-0.5,0.8-0.8c1.9,8.8,15.2,8.8,14.3,17.7c-0.9,3.3-4.7,3.9-7.2,5.3c-2.5,1.2-7.3,0.5-7.4,4.5c-3.5-0.6-5.9,2.1-7.7,4.7
		c0.1,2.7,1.2,5.2,2.7,7.3c4.3,3.9,10.5,4,16.3,3.1c10.6-4,22.6-8,25.4-20.3c-0.8-2.4,0.7-4.9,2.2-7.1c0.8-3.5,2.2-7.6-1.6-10.1
		c0.7-5.6-6.2-4.8-9-8.4c-3.4-2.4-8-5.8-8.3-9.5c2.3-2.6,5.8-2.5,8.7-4.3c1.9-0.2,1.6,1.8,1.7,3.1c0.3,3.1,3.5,4.1,6.1,5.4
		c4.3,1.6,6.1-3,9-5.1c-1.1-2.4,1.9-3.7-0.7-5.5c4.7-3.1,2.4-10.3,2.7-15.9c-2.6-2.4-5.9-5.7-9.7-6.7c-13.9-2.3-25.6,4.4-33.1,14.1
		c-1.9,3.8-4.4,7.4-5.8,11.3c-3.3-5.3-5.8-11.9-11.5-15c-1.9-0.4-3.1,0.8-4.4,1.8c-1.8,4.1-4.2,7.5-7.1,11.2
		c-1.7,4.5,3.2,6.7,5.4,10c0.5,1.6,1,4-0.3,5.5c-2-1-3.9-2.4-6.4-2.5c-2.6-5.2-7.6-0.7-11.6-0.8c-4,0.5-6.8,4.8-7.7,7.7
		c-1.3-2.6-0.9-5.9-3.1-8.1c-3.3-4.1-8.8-4.5-13.2-6.6c-1.5-2.6-5.8-1.4-7.9-2.1c-10.7,0.5-12.6,11.2-17.4,18
		c-2.5-2.7-5.1-5.4-7.7-7.9c-0.9-2-1.5-4.2-3.5-5.5c-0.1-3.3,4.6-2,6.2-3c4.8-1.6,10.7-0.4,14.7-3.3c0.5-1.5,0.9-3.9-0.9-5
		c-1.4-1.4,0.4-2.7,1.1-4c-0.7-3.9-2-8.2-5.8-10.4c-6.8-1.8-12.5,3.1-18.5,5.1c-2.3,1.8-4.9,2.6-7.8,3c-5.8,2.4-10.8,6.6-12,12.9
		c-3-5.9-7.1-12.7-14.3-15.6c-6.5-1.6-12.9,1.6-18.5,4.3c-9.2,4.4-9.4,14.6-8.4,23.1c1.1,4.2-5.8,3.1-8.1,5.7
		c-3-5.1-0.2-11.3-1.5-17.2c-1.5-2.6-4.3-5.2-7.6-5.3c-3.4-4.1-5.6,2.8-7.9,2.7c-0.2-0.5-1.1-1.1-2.1-0.8c-3.1,1.6-5.2,4.6-5.9,8.1
		c-2.7-2.4-1.4-7-5.2-9.3c-3.5-1.7-6.6-3.1-10.9-1.9c-2.6,1.5-3.1,5.8-7,3.6c-2.4,0.3-4.5,1.5-6.1,3.5c-5.4,10-4.9,22.2-8.4,33
		c-0.5,0.1-0.9-0.5-1.3-0.8c3.1-6,2.2-13,1.4-19.4c2.4-5.5-1.5-10.4-2.3-15.6c-1.5-3.3-5.2-4.7-8.8-4.3c-1.8-0.5-2.5,3.5-4.1,1.2
		c-2.1,0.8-4,1.8-5.8,3.4c-2.3,4.1-2.8,9.9-1,14.6c-0.3,11,0.7,19.7-2.7,29.6c-4.7-3.7-9.3-7.6-14.4-10.1
		c-11.4-3.8-20.6-13-31.8-16.9c0-0.3,0-0.5,0-0.8c-8.8-2.6-14.9-10.3-21.9-15.8c1.2-4.4-6.2-3.8-3.2-7.8
		c0.7-9.4,10.4-15.1,18.9-18.1c4.1,0.4,6.8-2.3,10.8-2.6c7.8-4.6,17.3-4.4,26.3-4c3.2,1.8,1.1,6.8,4.1,9.2
		c3.9,3.8,11.4,2.3,15.8,0.8c2.9-1.2,1-4.3,1.5-6.4c3.9-3.2,2.3-8.9,2.3-13.1c-0.9-4.5-4.8-9.4-9.4-10.6
		C230.5,447,221.4,447.8,213.1,447.1z M354.4,507.2c1.5,3.2,4.2,6.1,4,10c-2.1,0-9.3,2.8-6.4-2.4
		C353.6,512.5,352.5,509.2,354.4,507.2z M431.1,526.2c4.1,1.9,0.7,7.7,5.7,8.5c0.4,1-0.3,1.8-1.1,2c-2.3-0.1-4.7,0.5-6.6-0.3
		C427.9,532.8,428.5,528.9,431.1,526.2z"/>
	<path id="path20" class="st0" d="M229.8,451.6c5.2,3.8,14.8,5.4,14.5,13.7c-0.1,3.2,1.5,7.8-2.5,9.1c-7.7,1.6-0.2-8.1-8.2-8.4
		c-14.8-7.5-33.1-0.8-47.3,4c-4.1,5.5-13.1,2.4-16.2,9.7c-6.4,1.1-7.2,7.8-8.2,12.7c1.2,4.2,1.2,9.6,5.5,11.7
		c1.6,5.9,8.8,9,12.4,13.8c3.2,1.5,6.6,4.4,10.3,5.6c14.5,8.9,31,15.5,44.9,26c-0.1,1.8,2.3,1.4,2.7,3.1c1.5,7.3-0.9,13.5-6.8,18.2
		c-5.1,3-10.9,1.2-15.2,5.4c-4.6,1.6-10.6-1-15.4,1.4c-6.8,0-12.4-2.4-19.1-2.2c-7.2-1.4-15.3-2.1-21.8-6c-2.2-1.7-1.4-5.4-1.2-7.8
		c2.2-2.2,6.9-2.4,10.3-1.8c5.1,1.6,10.2,2.9,15.9,2.5c9.6-2.5,19.4,2.1,28.1-2.1c3.1-0.1,6.7,1.4,9.2,0c2.6,0.7,3.9-1.5,6.1-1.4
		c2.2-1.7-0.5-3.3-1.3-4.7c-7-1.1-7.3-10.5-15.2-8.5c-9.5-6.7-20.2-10.1-29.7-15.8c-2.8-2-3.9-6.4-8.6-5.6c-4-2-5.9-6.7-10.3-8
		c-1.5-2.9-6.7-3.2-6.5-6.9c-3.1-2.7-2.7-6.8-5.4-9.6c-2.8-6.8,2.4-11.8,2.6-18.1c2.8-4.3,8.1-5.9,10-11
		c17.1-10.9,34.9-21.6,57.1-20.9C223.5,451,226.7,450.9,229.8,451.6L229.8,451.6z"/>
	<path id="path22" class="st0" d="M534.7,484.1c8.7,1.8,4,10,5.6,15c-1.3,2.4-4.4,2-6.5,1.5c-1.7-3.2,1.1-6.6-2.9-8.5
		c-5.7,0.6-11.1,2.5-14.6,7.2c-3.7,2.9-2,7.7-4.6,11.1c3.9,6.7,10.9,9.9,17.1,14.6c1,4.1,5.7,7.5,2.9,12.2
		c-3.9,8-11.7,11.8-18.8,16.4c-5.6-0.5-10.7,5.1-15.4,0.5c-3.5-7.8,6.6-5.3,9.5-9c5.3-1.5,11.2-3.3,13.9-8.4c0.8-3.8-2.5-6-5.3-7.7
		c-5.2-1.1-5.8-7.3-11.6-8.3c-2-5.3-3.6-11.3-0.9-16.9c2.1-8.7,10.7-15.8,18.9-19.2c1.7-2.9,5.3-2.2,8.3-1.8
		C531.3,484.5,533.5,483.1,534.7,484.1z"/>
	<path id="path24" class="st0" d="M414.4,491c1.6,1.2,0.7,3.6,1.1,5.4c-5.4,3.6-14.1,1.4-18.1,7.4c-4.8,0.8-0.7,5.2-3,8
		c3.3,6.4,9.4,10.6,13,16.9c1.4,3.9,0.3,7.9-0.4,12.2c-5.6,6.9-16,7.4-24.7,6.8c-3.2-2-2.8-6.2-2.4-9.4c4.9-3.8,12.8-1.1,17.3-5.7
		c-1.2-4.3-4.3-9.1-9-10.7c-3.8-6.4-8-14.7-2.5-21.6c6-5,12.2-8.9,19.2-12.2C408.5,488.1,413.1,487.1,414.4,491L414.4,491z"/>
	<path id="path26" class="st0" d="M354.5,493c-3.1-0.1-3.8,2.9-6.7,3.5c-5.4,6.9-7.2,15.3-7.1,24.2c-2,1.6-4.8,1.8-7.4,2.2
		c-3.9,1.7,1,4.4-1,7c1.4,1.3,3.2,0.9,5.1,1.1c2.6,1.4,1.9,4.4,2.6,6.5c0.8,2.4,0.4,5.5,2.4,7.5c11.1,1.2,2.5-11.1,7.4-16
		c7,1.1,13.3-1.6,19.8-2.6c1.3-3,6-5.3,3.3-9.1c2.1-5-2.5-9.3-3-14.2c-3.6-5-7.8-10.4-14.9-10C354.9,493,354.7,493,354.5,493z
		 M356.3,501.6c6.9-0.4,5.3,7.7,9.9,10.8c1.4,1.5,0.9,2.6,0.5,4.3c-1.1,2.6-4.6,1.7-6.9,2.5c-3.4,0.1-6.8,2-10,0.4
		c-1.5-3.6,2.5-6.6,0.9-10.2C352.9,506.9,352.5,502.5,356.3,501.6z"/>
	<path id="path28" class="st0" d="M491.1,507.2c-0.6,10.7,4.9,26.8-7.8,32.8c-5.2,1.2-8.4-3.9-11.5-6.6c-2.2,2.2-2.2,5.8-4.4,8.3
		c-2,2.4-4.1,6-8.1,5.4c0.2-3.5,0.1-6.9,1.7-9.9c-1.3-4.2,0.2-8.4,1.3-12.2c-1.4-1.1-1-3.5-0.6-5.1c1.2-1.2,1.4-3.7,3.5-3.2
		c1.7,3.3,5.4,1.6,7.5,3.7c3.2,2,4,8.4,9.5,7.5c3.4-2.4-0.1-7.1,2.6-9.6c-1.1-5.1-1.4-10.3-5.5-13.9c0.6-0.7,0.2-1.6,0.4-2.5
		c-1.6-1.3-3-1.7-1.9-3.9c1.5-1.4,0.6-4,3.1-4.9C487,495.9,488.1,502.4,491.1,507.2L491.1,507.2z"/>
	<path id="path30" class="st0" d="M258.3,506.2c0,5.4,4.7,10.3,1.5,15.7c2.7,4.3-0.9,8.9,0.5,13.3c-3.5,5.7,2.7,12.7-2.7,18.3
		c-2.4,1.2-4.5,1-7.1,0.5c-2.2-3-0.8-7.5-2-10.9c1.5-7.9,3.1-14.7,2-22.9c3.8-5.1-2.8-12.3,1.4-17.4
		C255.4,501.6,257.2,504.3,258.3,506.2L258.3,506.2z"/>
	<path id="path32" class="st0" d="M295.4,506.4c1.4,5.6,4.4,10.7,6,16.3c0.7,0.3,1.1,1.6,2.1,1.1c2.7-2.2,2.1-5.6,2.6-8.7
		c3.3-3.6,4-8.4,7.5-12.1c3,0.4,6.4,1.8,7.6,4.5c0.8,7-0.9,13.1,2.3,19.6c1.1,7.3-1.3,13.2-1.3,20.9c-1.5,1.3-3.5,4.5-6.1,3.5
		c-1.6-1.7-2.2-4.3-1.4-6.6c2.4-6.3,1.6-12.7,1.4-19.4c-1.1-0.6-1.1-2.1-2.5-2.2c-3.6,0.6-4.4,4.5-6.5,6.9c-2.2,2.4-2.9,6.7-7.6,5.7
		c-5.3-2-3.1-9.1-7.9-11.5c0.1-2.1,1-5.5-1.1-7c-3.8,1.4-2.9,5.8-3.5,9.1c-3.5,3.3,2.3,7-1.2,10.4c0.8,3.8-0.2,9.4-3.7,12
		c-3-0.8-5.6-1.1-6.9-4.2c-0.3-8.8,2.5-16.7,2.9-25.2c2-2.2-0.2-4.5,1-6.8c2.5-3.4,3.1-8.5,7.6-10.2
		C290,502.2,293.5,503.4,295.4,506.4L295.4,506.4z"/>
	<path id="path38" class="st0" d="M429.4,509.7c-0.3,0-0.6,0-0.9,0c-10.4,3.6-2.1,14.5-10.6,19.2c-1,5.8,0.4,11.5,4.4,15.6
		c3.3,4.7,9.9,2.4,15.5,2.8c3.2-1.9,5.6-3.1,8.4-5.6c4.2-4.2,3.5-11.9,1.4-17c-0.4-4.7-2.7-7.7-6.3-10.8
		C437.2,514.3,433.9,510,429.4,509.7z M435.2,521.6c2,0.2,3.9,1.1,5,3.1c0.9,1.9,1.9,4.4,1.1,6.7c-3.6,1.3-0.6,6.4-4.8,7.2
		c-3.5-0.8-9.8,2.6-10.5-2.4c-0.7-4.9,1.6-8.9,3.2-13.1C431,522,433.2,521.4,435.2,521.6z"/>
	<path id="path44" class="st0" d="M539.6,554.1H537v-1.8h7.4v1.8h-2.6v7.7h-2.2L539.6,554.1L539.6,554.1z"/>
	<path id="path46" class="st0" d="M553.5,558.1c0-1.1-0.1-2.5-0.1-3.9h0c-0.3,1.2-0.7,2.6-1.1,3.7l-1.2,3.7h-1.7l-1-3.7
		c-0.3-1.1-0.6-2.5-0.9-3.7h0c0,1.3-0.1,2.8-0.2,4l-0.2,3.6h-2l0.6-9.6h2.9l0.9,3.2c0.3,1.1,0.6,2.3,0.8,3.4h0.1
		c0.3-1.1,0.6-2.4,0.9-3.4l1-3.2h2.8l0.5,9.6h-2.1L553.5,558.1L553.5,558.1z"/>
</g>
</svg>
