<svg xmlns="http://www.w3.org/2000/svg" xmlns:xlink="http://www.w3.org/1999/xlink" viewBox="0 0 950.29 837.02"><defs><style>.cls-1{fill:none;}.cls-2{clip-path:url(#clip-path);}.cls-3{fill:#f8ce89;}.cls-4{fill:#fade9c;}.cls-5{fill:#faf3b3;}.cls-6{fill:#d8ad5d;}</style><clipPath id="clip-path" transform="translate(60.33 417.35)"><rect class="cls-1" width="834.68" height="432"/></clipPath></defs><g id="레이어_2" data-name="레이어 2"><g id="레이어_8" data-name="레이어 8"><g class="cls-2"><rect class="cls-1" y="410.86" width="950.29" height="426.16"/><path class="cls-3" d="M83.78,102.71a10.26,10.26,0,0,0-6,2c-6.76,4.74-8.75,14-5.33,24.86C76.14,141.09,86.08,152.8,98,152.8h0a19.12,19.12,0,0,0,7.2-1.45c6.46-2.63,5.81-11.3,4.85-16.24C107.19,120.43,94.83,102.71,83.78,102.71Z" transform="translate(60.33 417.35)"/><path class="cls-4" d="M114.62-176.35c-10.08,0-23.06,5.9-27.23,12.39-1.35,2.09-1.63,4.05-.83,5.82,1.9,4.17,7.55,6.66,15.11,6.66,8.56,0,17.17-3.26,21.42-8.11a11.27,11.27,0,0,0,2.91-9.25C125.18-175,119.36-176.35,114.62-176.35Z" transform="translate(60.33 417.35)"/><path class="cls-4" d="M101.67-150.26h0c-8.06,0-14.12-2.75-16.22-7.37-.68-1.5-1.07-3.92.91-7,4.36-6.77,17.84-13,28.26-13,7.39,0,11.86,3.05,12.6,8.58A12.5,12.5,0,0,1,124-158.78C119.54-153.68,110.57-150.26,101.67-150.26Zm13-24.87c-9.55,0-22.29,5.75-26.21,11.83-1.12,1.75-1.36,3.27-.73,4.66,1.69,3.71,6.92,5.93,14,5.94,8.23,0,16.47-3.09,20.49-7.69a10.13,10.13,0,0,0,2.63-8.29C124.22-173,120.8-175.13,114.62-175.13Z" transform="translate(60.33 417.35)"/><path class="cls-3" d="M316.65,328.28c-12.63,0-23.07,2.91-27.27,7.6a7.8,7.8,0,0,0-2.09,6.36c1.3,11.67,18.59,18.64,34.57,18.64h0c12.7,0,27.11-4.59,29.45-17.46a6.56,6.56,0,0,0-1.66-5.65C345,332.18,331.42,328.28,316.65,328.28Z" transform="translate(60.33 417.35)"/><path class="cls-4" d="M205.88-71.1c-11.32,0-22.95,4.68-29.63,11.92A22.55,22.55,0,0,0,170-41.74c1,12.93,13.8,17.53,25.4,17.53h0c13,0,25.92-5.33,32.23-13.26a18.86,18.86,0,0,0,3.79-16.72C229-64.78,219.42-71.1,205.88-71.1Z" transform="translate(60.33 417.35)"/><path class="cls-4" d="M195.4-23h0c-12.14,0-25.52-4.91-26.61-18.66A23.72,23.72,0,0,1,175.35-60c6.9-7.48,18.89-12.32,30.53-12.32,14.15,0,24.14,6.68,26.72,17.86a20.06,20.06,0,0,1-4,17.77C222.05-28.5,208.72-23,195.4-23Zm10.48-46.9c-11,0-22.27,4.52-28.73,11.53a21.39,21.39,0,0,0-6,16.51c1,12.1,13.13,16.41,24.18,16.41h0c12.62,0,25.19-5.14,31.28-12.8a17.71,17.71,0,0,0,3.55-15.68C227.91-63.91,218.81-69.88,205.88-69.88Z" transform="translate(60.33 417.35)"/><path class="cls-3" d="M87,169.79a8.56,8.56,0,0,0-1.51.13c-4.36.8-4.54,6.17-4.25,9.3.92,10.24,8.2,21.92,13.67,21.92a4,4,0,0,0,2.24-.72c5.08-3.39,4.86-11.24,3.14-16.94C98.25,176.89,93.24,169.79,87,169.79Z" transform="translate(60.33 417.35)"/><path class="cls-3" d="M369.31-121c6.95-10.37,8.08-21.43,3.37-32.86-9.52-23.1-35-26.55-49.3-26.55-30.54,0-63.17,14.46-77.57,34.37-7.53,10.4-9.51,21.28-5.87,32.32,5.66,17.17,24,27,50.42,27C322.27-86.69,356.22-101.43,369.31-121Z" transform="translate(60.33 417.35)"/><path class="cls-3" d="M397.5-254.09h0c13.85,0,27.75-5,33.81-12a12.5,12.5,0,0,0,3.24-10.37c-2.38-15.06-18.4-16.69-25.18-16.69-14.83,0-31.16,6.76-37.18,15.38-2.48,3.57-3.08,7.2-1.75,10.79C373.43-258.93,383.54-254.09,397.5-254.09Z" transform="translate(60.33 417.35)"/><path class="cls-3" d="M751.1-168.16a7.19,7.19,0,0,0,5.3-2c2.76-2.76,3.39-5.81,1.94-9.33-3.59-8.65-18.44-16.8-27.34-16.8-1.94,0-4.46.4-5.52,2.3-1.71,3.08.2,7.23,1.5,9.42C732-176,743.51-168.16,751.1-168.16Z" transform="translate(60.33 417.35)"/><path class="cls-3" d="M515-23.92c7.26,0,15.21-3.23,15.78-12.32a10.07,10.07,0,0,0-2.67-7.86c-2.94-3.13-8.36-5-14.49-5-6.62,0-12.9,2.17-16,5.53a7.66,7.66,0,0,0-2.18,6C496.1-29,505.92-23.92,515-23.92Z" transform="translate(60.33 417.35)"/><path class="cls-3" d="M398.73,13c8.29,10.22,28.88,17.63,49,17.64h0c10.78,0,19.94-2.17,26.5-6.26C481.55,19.75,485.28,13,485.28,4.2c0-23.84-22.48-36.32-44.68-36.32-17.74,0-40.26,8.59-45.36,32.8C394.36,4.88,395.53,9,398.73,13Z" transform="translate(60.33 417.35)"/><path class="cls-3" d="M452.12,217.1c-35.26,0-78.13,10.76-82.88,41.07-1.1,7,1.45,14.17,7.57,21.33C394.2,299.83,436,315.17,474,315.17h0c20.69,0,57.13-4.82,68.65-37.09,4-11.16,2.8-21.38-3.52-30.35C526.19,229.41,491.24,217.1,452.12,217.1Z" transform="translate(60.33 417.35)"/><path class="cls-3" d="M257.74-320c15.1,0,36.17-10.14,44.19-21.27,2.75-3.81,3.63-7.3,2.61-10.35-1.7-5.11-6.39-7.7-13.92-7.7-16.05,0-39.19,12-45.88,23.81-2.07,3.67-2.28,6.93-.63,9.68C247-321.07,253.11-320.06,257.74-320Z" transform="translate(60.33 417.35)"/><path class="cls-3" d="M474.59-295.22c7.66,0,14.18-2.19,17.44-5.86a9.84,9.84,0,0,0,2.36-8c-1.15-9.77-10.2-13.26-18.28-13.26-10.22,0-21.5,5.53-22.29,15.79a6.86,6.86,0,0,0,2,5.3C459.22-297.6,466.59-295.22,474.59-295.22Z" transform="translate(60.33 417.35)"/><path class="cls-3" d="M727.47,58.69c-14.41,0-23.82,8.39-25.18,22.44-.48,4.9,1.17,9.45,4.87,13.54,6.44,7.09,18.71,11.85,30.54,11.85h0c5.45,0,23.34-1.29,24.67-17.9.52-6.51-1.77-12.72-6.63-18C749.05,63.38,738,58.69,727.47,58.69Z" transform="translate(60.33 417.35)"/><path class="cls-3" d="M775.81-133.6c-6.29,5.39-5,12.14-3.72,15.68,2.15,5.79,7.17,10.5,11.2,10.5a4.24,4.24,0,0,0,2.12-.55c2.55-1.45,3.11-6.77,1.4-13.22-1.94-7.29-6-13.22-9.12-13.22A2.89,2.89,0,0,0,775.81-133.6Z" transform="translate(60.33 417.35)"/><path class="cls-3" d="M646.58,108.32c-10.34,0-21.74,4.9-22.34,15.67a11.61,11.61,0,0,0,3.27,8.92c4,4.24,11.74,6.87,20.16,6.87,8.19,0,15.63-2.49,19.41-6.5a10.38,10.38,0,0,0,2.93-8C669.32,113.63,657.38,108.32,646.58,108.32Z" transform="translate(60.33 417.35)"/><path class="cls-5" d="M395.54-413.68c-148,0-266.69,67.8-334.32,190.9C-14-85.82-9.76,92.51,71.85,221c73.2,115.2,208,186.77,351.89,186.78h0c143,0,268.21-69,343.58-189.38C847.11,91,851.87-69,779.78-199.24,704.32-335.52,564.27-413.68,395.54-413.68ZM721.77-196.55c1.06-1.91,3.43-4.18,8.72-4.18,10.28,0,26.48,8.79,30.73,19.06,2,4.9,1.09,9.51-2.73,13.33a10.7,10.7,0,0,1-7.9,3c-9.78,0-22.23-9.58-27.29-18.18C720.34-188.51,719.81-193,721.77-196.55ZM530.31-47.43A13.84,13.84,0,0,1,534-36.83c-.6,9.58-8.23,15.77-19.45,15.77-10.63,0-22.39-6-23.25-17a11.43,11.43,0,0,1,3.16-8.77c3.84-4.14,11-6.71,18.71-6.71C520.38-53.58,526.63-51.34,530.31-47.43ZM475.6-326.86c12.14,0,20.75,6.48,21.93,16.51a13.53,13.53,0,0,1-3.27,10.89c-4,4.51-11.36,7.09-20.18,7.09-9.11,0-17.34-2.77-21.47-7.24a10.44,10.44,0,0,1-3-8.07C450.6-320.13,463.73-326.86,475.6-326.86ZM488.44,3.39c0,10-4.43,18-12.81,23.24-7.14,4.46-17,6.81-28.44,6.81h0c-21.09,0-42.88-8-51.81-19C391.49,9.67,390,4.36,391.14-.89c5.55-26.36,29.84-35.72,48.95-35.72C464.12-36.61,488.44-22.87,488.44,3.39ZM368.68-280.73c6.74-9.67,24-17,40.19-17s26.82,7.22,28.81,19.79a16.25,16.25,0,0,1-4.08,13.33c-6.81,8-21.52,13.33-36.6,13.33h0c-15.56,0-27-5.73-30.5-15.33C364.75-271.29,365.51-276.19,368.68-280.73ZM241-338.18c7.34-13,31.64-25.68,49.07-25.68,9.16,0,15.18,3.53,17.4,10.21,1.4,4.18.32,8.9-3.11,13.66-8.6,11.93-31.08,22.79-47.17,22.79h0c-8,0-13.79-2.63-16.78-7.6C238.1-328.72,238.31-333.35,241-338.18ZM98.64,202.65A7.6,7.6,0,0,1,94.36,204h0C85.63,204,78,188.91,77,178.73c-.67-7.45,2-12.27,7.25-13.23a12.25,12.25,0,0,1,2.17-.2c8.19,0,14.34,8.19,16.8,16.3C106,190.69,104.19,199,98.64,202.65Zm7.45-48.72a22.77,22.77,0,0,1-8.58,1.72h0c-13.7,0-25-13-29-25.83-3.87-12.25-1.29-23.35,6.72-29a13.81,13.81,0,0,1,8.07-2.63c12.94,0,26.69,19,29.89,35.37C115.17,143.88,112.59,151.29,106.09,153.93Zm19.48-311.65c-5,5.68-14.47,9.36-24.18,9.36-9,0-15.94-3.29-18.45-8.81-1.33-2.94-1-6.16,1.08-9.33,4.83-7.5,19-14.08,30.32-14.08,8.64,0,14.12,3.9,15,10.7A15.06,15.06,0,0,1,125.57-157.72Zm104.65,122c-7.08,8.89-20.86,14.64-35.11,14.64h0c-16.89,0-28-8-29.06-20.91a26.19,26.19,0,0,1,7.23-20.23c7.46-8.08,19.85-13.1,32.33-13.1,15.37,0,26.25,7.39,29.11,19.76A22.69,22.69,0,0,1,230.22-35.73Zm5.72-77.65c-4-12.05-1.76-24.37,6.38-35.62,15.05-20.79,48.92-35.88,80.55-35.88,25.94,0,45.15,10.5,52.7,28.82,5.13,12.45,3.84,25-3.72,36.3-13.94,20.82-48.42,35.93-82,35.93h0C261.77-83.83,242.13-94.6,235.94-113.38ZM354.41,343.26c-2.74,15.09-18.88,20.48-33.06,20.48h0c-17.34,0-36.63-7.68-38.21-21.91a11.45,11.45,0,0,1,3-9.21c4.95-5.53,16.17-8.83,30-8.83,13.34,0,29.59,3.34,35.82,10.81A10.33,10.33,0,0,1,354.41,343.26ZM545.57,278.5C536.47,304,510.85,318,473.46,318h0c-38.95,0-81.91-15.89-99.93-37-6.85-8-9.68-16.18-8.41-24.29,5.12-32.6,49.8-44.17,86.51-44.17,40.88,0,76.2,12.64,90,32.18C548.64,254.8,550,266.15,545.57,278.5Zm112.37,4.13C653,292.58,640.19,301,630,301h0a13,13,0,0,1-9.44-3.59c-3.28-3.28-3.82-8.16-1.52-13.73,4.19-10.12,17.61-21.88,28.63-21.88a11.39,11.39,0,0,1,9.48,4.59C660.62,271,660.89,276.72,657.94,282.63ZM669.24,135c-4.52,4.79-12.78,7.66-22.08,7.66h0c-9.54,0-18.07-3-22.82-8A15.37,15.37,0,0,1,620.06,123c.74-13.15,14-19.14,26-19.14,12.47,0,26.27,6.4,27.1,20.44A14.13,14.13,0,0,1,669.24,135Zm-2.62-242.42h0c-18.62,0-38.55-8.48-49.6-21.1-6.86-7.83-9.84-16.73-8.64-25.73C610-166.33,619.77-173,635.93-173c23,0,53.08,13.71,63.14,28.77,3.87,5.78,4.76,11.63,2.58,16.9C696.43-114.68,683.66-107.44,666.62-107.44ZM765.53,88.09c-1,13.13-11.91,21.28-28.33,21.28h0c-13,0-26.06-5.12-33.25-13.05-4.38-4.81-6.39-10.47-5.81-16.36C700,61,714.23,54.2,727,54.2c11.63,0,23.5,5,31,13.13C763.51,73.36,766.13,80.54,765.53,88.09Zm24.31-211c2.25,8.46,1.08,14.94-3.11,17.34a7.82,7.82,0,0,1-4,1c-5.63,0-11.92-5.54-14.64-12.89-2.79-7.55-1.06-14.75,4.77-19.75a6.45,6.45,0,0,1,4.27-1.68C783-138.89,787.8-130.63,789.84-122.94Z" transform="translate(60.33 417.35)"/><path class="cls-3" d="M636.44-168.49c-10,0-22.21,2.69-23.92,15.52-1.06,7.93,1.62,15.82,7.76,22.82,10.39,11.87,29.22,19.85,46.84,19.85h0c9.1,0,25.3-2.28,31.63-17.59,1.72-4.15,1-8.68-2.23-13.47C687-155.56,658.4-168.49,636.44-168.49Z" transform="translate(60.33 417.35)"/><path class="cls-3" d="M648.22,266.27c-8.48,0-21.21,9.9-25.23,19.61-1.21,2.91-2.06,7,.71,9.73a9.29,9.29,0,0,0,6.85,2.51h0c8.61,0,20.34-7.78,24.61-16.32,1.63-3.25,2.88-8-.4-12.41A7.73,7.73,0,0,0,648.22,266.27Z" transform="translate(60.33 417.35)"/><path class="cls-6" d="M783-201a411.07,411.07,0,0,0-151.17-155c-69.14-40.67-148.63-61.29-236.28-61.29-149.36,0-269.23,68.47-337.54,192.8C-17.87-86.45-13.55,93.38,68.76,222.93c73.86,116.25,209.88,188.47,355,188.48h0c144.27,0,270.64-69.65,346.69-191.09,40.65-64.93,62.84-139,64.16-214.1A413.41,413.41,0,0,0,783-201ZM767.35,218.36C692,338.72,566.76,407.74,423.77,407.74h0c-143.86,0-278.69-71.58-351.89-186.78C-9.76,92.51-14-85.82,61.22-222.78c67.63-123.1,186.36-190.9,334.32-190.9,168.73,0,308.78,78.16,384.24,214.44C851.87-69,847.11,91,767.35,218.36Z" transform="translate(60.33 417.35)"/><path class="cls-4" d="M289.94-83c33.57-.07,68-15.27,81.91-36.12,7.54-11.31,8.79-23.86,3.63-36.31-7.58-18.29-26.81-28.75-52.76-28.69-31.63.07-65.47,15.24-80.46,36.06-8.12,11.28-10.3,23.6-6.3,35.64,6.23,18.76,25.9,29.49,54,29.42Zm-50.49-30.58c-3.67-11-1.72-21.91,5.79-32.33,14.36-19.95,46.95-34.47,77.49-34.54,14.33,0,39.79,3.35,49.36,26.43,4.74,11.42,3.63,22.48-3.29,32.86-13.05,19.59-47,34.42-78.88,34.49C263.54-86.57,245.14-96.38,239.45-113.54Z" transform="translate(60.33 417.35)"/><path class="cls-4" d="M289.69-81.73c-28.5,0-48.51-11-54.89-30.27-4.13-12.42-1.89-25.13,6.46-36.73,15.21-21.12,49.47-36.5,81.46-36.58,26.57,0,46.13,10.74,53.89,29.45,5.33,12.84,4,25.8-3.74,37.46-14.1,21.17-49,36.59-82.93,36.67Zm33.25-101.13c-31.48.07-64.91,15-79.69,35.56-7.88,10.94-10,22.88-6.13,34.53,6,18.17,25.19,28.59,52.57,28.59h.24c33.2-.08,67.23-15,80.91-35.58,7.29-11,8.51-23.11,3.51-35.16C367-172.68,348.25-182.86,322.94-182.86Zm-33,97.46c-27.06,0-45.79-10.12-51.65-27.75-3.79-11.43-1.78-22.68,6-33.44,14.58-20.23,47.58-35,78.49-35h.21c14.57,0,40.47,3.54,50.28,27.19,4.9,11.82,3.76,23.26-3.4,34C356.56-100.54,322.22-85.48,289.93-85.4Zm33-95-.2,1.22c-30.19.07-62.36,14.38-76.51,34-7.26,10.09-9.15,20.6-5.62,31.24,5.5,16.57,23.39,26.07,49.07,26.07,31.79-.07,65.26-14.66,78.1-33.94,6.68-10,7.75-20.7,3.18-31.72-9.27-22.34-34.06-25.68-48-25.68Z" transform="translate(60.33 417.35)"/><path class="cls-4" d="M396.69-250.61h0c15.09,0,29.78-5.43,36.58-13.41a16.25,16.25,0,0,0,4-13.35c-2-12.57-12.53-19.75-28.85-19.72-16.17,0-33.43,7.37-40.15,17-3.16,4.55-3.9,9.45-2.15,14.17C369.71-256.28,381.13-250.58,396.69-250.61Zm-25.36-27.34c6-8.64,22.31-15.43,37.14-15.47,6.78,0,22.81,1.58,25.22,16.63a12.51,12.51,0,0,1-3.22,10.39c-6,7.1-19.93,12.09-33.78,12.12h0c-14,0-24.08-4.78-27.08-12.87C368.27-270.74,368.85-274.37,371.33-277.95Z" transform="translate(60.33 417.35)"/><path class="cls-4" d="M396.54-249.39c-16,0-27.8-6-31.53-16.06-1.9-5.1-1.1-10.39,2.3-15.29,6.92-10,24.61-17.53,41.14-17.57,17.05,0,28,7.56,30.07,20.75a17.42,17.42,0,0,1-4.32,14.33c-7,8.24-22.09,13.81-37.5,13.84Zm12-46.47c-15.94,0-32.76,7.13-39.27,16.52-2.92,4.21-3.62,8.72-2,13,3.36,9.06,14.29,14.47,29.24,14.47v1.22l.15-1.22c14.74,0,29.07-5.26,35.64-13a15,15,0,0,0,3.77-12.35C434.2-289,424.17-295.86,408.59-295.86Zm-11.9,42.8c-14.56,0-25.06-5.11-28.24-13.67-1.48-4-.85-8,1.87-11.92,6.2-8.93,23-16,38.14-16h.11c7.07,0,23.77,1.72,26.33,17.66a13.71,13.71,0,0,1-3.5,11.37C425.15-258.25,410.87-253.09,396.69-253.06Zm11.88-40.35-.1,1.22c-14.47,0-30.35,6.59-36.13,14.94-2.24,3.22-2.78,6.48-1.59,9.67,2.8,7.56,12.44,12.07,25.79,12.07,13.66,0,27.17-4.83,33-11.68a11.35,11.35,0,0,0,2.94-9.4c-2.26-14.08-17.47-15.6-23.91-15.6Z" transform="translate(60.33 417.35)"/><path class="cls-4" d="M699-144.29c-10.09-15-40.22-28.67-63.2-28.61-16.17,0-25.94,6.7-27.52,18.77-1.18,9,1.83,17.89,8.7,25.7,11.08,12.6,31,21,49.65,21h0c17,0,29.79-7.31,35-19.94C703.8-132.66,702.9-138.51,699-144.29Zm-.77,15.51c-6.3,15.32-22.5,17.65-31.6,17.67h0c-17.63,0-36.47-7.9-46.89-19.74-6.16-7-8.86-14.88-7.82-22.8,1.68-12.84,13.92-15.56,23.89-15.58,21.95-.05,50.62,12.81,60.15,27C699.18-137.46,699.94-132.93,698.24-128.78Z" transform="translate(60.33 417.35)"/><path class="cls-4" d="M666.51-106.22c-18.91,0-39.18-8.6-50.44-21.4-7.11-8.08-10.22-17.3-9-26.67,1.67-12.75,11.87-19.8,28.73-19.84,23.42,0,54,13.9,64.22,29.16,4.12,6.13,5.07,12.38,2.74,18-5.4,13.12-18.56,20.66-36.12,20.7Zm-30.57-65.46c-15.6,0-25,6.32-26.43,17.71-1.14,8.65,1.77,17.2,8.4,24.73,10.82,12.31,30.35,20.58,48.6,20.58v1.22l.13-1.22c16.52,0,28.86-7,33.86-19.19,2-4.88,1.14-10.33-2.5-15.75C688.13-158.3,658.55-171.68,635.94-171.68Zm30.7,61.79c-18,0-37.21-8.1-47.81-20.15-6.39-7.27-9.2-15.49-8.12-23.77,1.43-10.86,10.11-16.61,25.11-16.65H636c22.26,0,51.35,13.13,61,27.54,3.46,5.14,4.26,10,2.39,14.61C692.8-112.33,676-109.91,666.64-109.89ZM636-169.23l-.13,1.22c-9.48,0-21.11,2.56-22.68,14.51-1,7.57,1.61,15.12,7.52,21.84,10.17,11.56,28.6,19.33,45.85,19.33,8.92,0,24.57-2.25,30.59-16.91,1.55-3.76.82-7.9-2.15-12.32C685.65-155.4,657.53-168,636-168Z" transform="translate(60.33 417.35)"/><path class="cls-4" d="M750.49-165.49a10.75,10.75,0,0,0,7.89-3.06,11.5,11.5,0,0,0,2.7-13.34c-4.28-10.26-20.5-19-30.78-19-5.29,0-7.66,2.29-8.71,4.21-2,3.52-1.41,8,1.56,13.06C728.23-175,740.71-165.47,750.49-165.49ZM724.8-194.9c1.05-1.9,3.58-2.3,5.51-2.31,8.9,0,23.77,8.09,27.38,16.73a7.88,7.88,0,0,1-1.91,9.34,7.19,7.19,0,0,1-5.3,2c-7.59,0-19.1-7.75-24.17-16.31C725-187.67,723.1-191.81,724.8-194.9Z" transform="translate(60.33 417.35)"/><path class="cls-4" d="M750.45-164.27c-10.18,0-23.11-9.86-28.35-18.72-3.2-5.42-3.75-10.35-1.58-14.28,1.21-2.19,3.89-4.82,9.78-4.83,10.75,0,27.35,8.8,31.91,19.74,2.25,5.4,1.22,10.47-3,14.67a11.93,11.93,0,0,1-8.76,3.42Zm-20.1-35.39c-3.76,0-6.4,1.25-7.69,3.58-1.72,3.12-1.19,7.22,1.55,11.85,4.9,8.28,16.88,17.51,26.24,17.51v1.23l0-1.23a9.52,9.52,0,0,0,7-2.69c3.48-3.5,4.3-7.54,2.44-12C755.85-191.24,740.25-199.66,730.35-199.66Zm20.13,31.72c-8.12,0-19.89-7.91-25.22-16.92-1.43-2.41-3.53-7-1.53-10.63,1.06-1.92,3.34-2.93,6.58-2.94h0c9.34,0,24.62,8.23,28.48,17.48a9.1,9.1,0,0,1-2.18,10.67A8.34,8.34,0,0,1,750.48-167.94Zm-20.14-29.27,0,1.23c-1.6,0-3.67.29-4.44,1.68-1.46,2.64.56,6.61,1.5,8.2,4.86,8.22,15.87,15.71,23.08,15.71a6,6,0,0,0,4.46-1.61,6.68,6.68,0,0,0,1.65-8c-3.37-8.07-17.86-16-26.22-16Z" transform="translate(60.33 417.35)"/><path class="cls-4" d="M114.21-179.29c-11.33,0-25.49,6.63-30.3,14.14-2,3.17-2.39,6.4-1,9.34,2.52,5.5,9.42,8.78,18.47,8.76,9.71,0,19.19-3.72,24.15-9.42a15,15,0,0,0,3.77-12.16C128.33-175.43,122.84-179.31,114.21-179.29Zm8.51,20.41c-4.24,4.86-12.84,8.14-21.4,8.16-7.56,0-13.22-2.46-15.12-6.62-.81-1.77-.54-3.73.81-5.83,4.16-6.49,17.12-12.43,27.2-12.45,4.74,0,10.56,1.28,11.4,7.48A11.29,11.29,0,0,1,122.72-158.88Z" transform="translate(60.33 417.35)"/><path class="cls-4" d="M101.25-145.83c-9.5,0-16.79-3.54-19.5-9.48-1.53-3.33-1.14-7,1.14-10.5,5-7.81,19.63-14.68,31.31-14.71,9.35,0,15.25,4.27,16.26,11.72a16.21,16.21,0,0,1-4.05,13.14c-5.19,5.95-15,9.81-25.08,9.83Zm13-32.24c-11,0-24.71,6.37-29.32,13.58-1.8,2.81-2.14,5.63-1,8.17,2.31,5,8.77,8,17.28,8V-147l.08-1.22c9.37,0,18.49-3.56,23.23-9a13.85,13.85,0,0,0,3.48-11.2C127.2-174.66,122.31-178.07,114.27-178.07ZM101.33-149.5c-8.1,0-14.15-2.74-16.25-7.34-.68-1.48-1.08-3.91.9-7,4.34-6.79,17.8-13,28.23-13h.06c7.35,0,11.81,3,12.56,8.55a12.49,12.49,0,0,1-3.19,10.23C119.18-153,110.22-149.52,101.33-149.5Zm12.94-26.12,0,1.22c-9.56,0-22.28,5.8-26.18,11.89-1.12,1.75-1.36,3.27-.73,4.66,1.69,3.7,6.9,5.91,13.94,5.91,8.3,0,16.52-3.13,20.54-7.74A10.08,10.08,0,0,0,124.4-168c-.58-4.27-4-6.43-10.13-6.43Z" transform="translate(60.33 417.35)"/><path class="cls-4" d="M452.38,213.11c-36.71.09-81.37,11.76-86.4,44.37-1.26,8.11,1.59,16.28,8.46,24.27,18.07,21,61.06,36.81,100,36.72h0c37.4-.08,63-14.18,72-39.69,4.39-12.36,3-23.7-4.06-33.69C528.61,225.57,493.27,213,452.38,213.11ZM543,277.55c-11.45,32.3-47.87,37.21-68.57,37.25h0c-38,.09-79.79-15.15-97.23-35.44-6.13-7.14-8.7-14.32-7.62-21.32,4.69-30.32,47.53-41.17,82.79-41.26,39.12-.09,74.1,12.14,87.05,30.43C545.79,256.17,547,266.38,543,277.55Z" transform="translate(60.33 417.35)"/><path class="cls-4" d="M474.13,319.7c-39.16,0-82.42-16-100.62-37.15-7.11-8.28-10.05-16.78-8.74-25.26,5.15-33.37,50.42-45.31,87.61-45.4h.46c41.05,0,76.62,12.75,90.59,32.49,7.32,10.34,8.74,22.05,4.22,34.81-9.23,26-35.22,40.42-73.17,40.51ZM452.84,214.34h-.45c-36.23.08-80.29,11.48-85.2,43.33-1.2,7.74,1.55,15.57,8.18,23.28,17.78,20.7,60.24,36.3,98.76,36.3h.33c36.85-.08,62-13.89,70.88-38.88,4.24-12,2.93-22.93-3.91-32.58C527.9,226.68,493.13,214.34,452.84,214.34ZM474.13,316c-38.2,0-80.26-15.42-97.83-35.87-6.39-7.43-9-14.94-7.9-22.3,4.8-31.09,48.25-42.22,84-42.3h.44c39.29,0,74.5,12.43,87.61,30.94,6.59,9.31,7.85,19.89,3.75,31.46-11.7,33-48.71,38-69.72,38.07Zm-21.3-98h-.43c-34.78.08-77,10.66-81.58,40.22-1,6.63,1.44,13.47,7.33,20.33,17.16,20,58.42,35,96,35h.32c20.38-.05,56.23-4.84,67.43-36.43,3.82-10.78,2.66-20.62-3.44-29.23C525.77,230,491.37,218,452.83,218Z" transform="translate(60.33 417.35)"/><path class="cls-4" d="M727.36,54.06c-12.73,0-27,6.83-28.77,25.83-.56,5.89,1.47,11.54,5.85,16.35,7.21,7.91,20.28,13,33.28,13h0c16.42,0,27.26-8.22,28.28-21.34.59-7.56-2-14.73-7.63-20.75C750.88,59,739,54,727.36,54.06Zm35,33.52c-1.29,16.61-19.17,18-24.63,18h0c-11.84,0-24.12-4.71-30.57-11.78-3.72-4.07-5.37-8.63-4.91-13.52,1.33-14.06,10.73-22.47,25.13-22.5,10.48,0,21.6,4.64,28.32,11.88C760.55,74.87,762.86,81.08,762.35,87.58Z" transform="translate(60.33 417.35)"/><path class="cls-4" d="M737.62,110.44c-13.29,0-26.68-5.25-34.08-13.38-4.63-5.07-6.76-11-6.17-17.28,1.87-19.82,16.72-26.91,30-26.94,12,0,24.22,5.15,31.91,13.45,5.82,6.27,8.57,13.76,8,21.67-1.07,13.83-12.38,22.44-29.5,22.48ZM727.46,55.29c-12.29,0-25.93,6.53-27.65,24.72-.53,5.53,1.39,10.86,5.53,15.4,7,7.64,19.64,12.58,32.28,12.58v1.22l.1-1.22c15.73,0,26.1-7.78,27.07-20.22.56-7.2-2-14.06-7.31-19.81C750.23,60.14,738.73,55.29,727.46,55.29Zm10.26,51.48c-12.22,0-24.83-4.9-31.47-12.18-4-4.34-5.72-9.21-5.23-14.47,1.4-14.75,11.25-23.57,26.35-23.61h.08c10.78,0,22.22,4.82,29.13,12.28,5.11,5.5,7.52,12,7,18.89C762.2,105.33,743.44,106.75,737.72,106.77Zm-10.27-49L727.37,59c-13.7,0-22.65,8-23.91,21.39-.43,4.54,1.12,8.78,4.59,12.59,6.21,6.8,18.1,11.38,29.58,11.38,5.27,0,22.29-1.27,23.5-16.83.48-6.16-1.71-12-6.34-17-6.48-7-17.21-11.49-27.34-11.49Z" transform="translate(60.33 417.35)"/><path class="cls-4" d="M646.59,103.88c-12,0-25.26,6.05-26,19.2a15.31,15.31,0,0,0,4.3,11.64c4.76,5,13.3,8,22.84,8h0c9.3,0,17.55-2.9,22.06-7.71a14,14,0,0,0,3.9-10.72C672.87,110.22,659.06,103.85,646.59,103.88Zm20.56,28.58c-3.77,4-11.2,6.53-19.39,6.55-8.42,0-16.15-2.59-20.17-6.82a11.56,11.56,0,0,1-3.29-8.92c.57-10.76,12-15.69,22.29-15.72,10.81,0,22.76,5.27,23.48,16.93A10.37,10.37,0,0,1,667.15,132.46Z" transform="translate(60.33 417.35)"/><path class="cls-4" d="M647.67,143.91c-9.83,0-18.66-3.12-23.63-8.35A16.52,16.52,0,0,1,619.41,123c.74-13.94,14.6-20.32,27.17-20.35,13.08,0,27.47,6.73,28.37,21.52a15.23,15.23,0,0,1-4.23,11.63c-4.73,5.05-13.31,8.08-23,8.1Zm-1-38.8c-11.53,0-24.16,5.68-24.82,18a14.15,14.15,0,0,0,4,10.73c4.51,4.75,12.68,7.59,21.85,7.59v1.22l.1-1.22c9,0,16.89-2.76,21.17-7.32a12.87,12.87,0,0,0,3.57-9.81C671.7,111.12,658.55,105.11,646.67,105.11Zm1.09,35.13c-8.8,0-16.84-2.77-21.06-7.21a12.77,12.77,0,0,1-3.63-9.82c.62-11.56,12.62-16.85,23.52-16.88h.09c11.32,0,23.85,5.66,24.61,18.07a11.53,11.53,0,0,1-3.24,8.9C664.05,137.56,656.28,140.22,647.76,140.24Zm-1.08-32.68-.08,1.22c-9.78,0-20.55,4.59-21.08,14.56a10.36,10.36,0,0,0,3,8c3.77,4,11.12,6.45,19.19,6.45s15-2.38,18.59-6.16a9.22,9.22,0,0,0,2.59-7.08c-.67-10.84-12-15.77-22.17-15.77Z" transform="translate(60.33 417.35)"/><path class="cls-4" d="M205.71-74.26c-12.49,0-24.86,5.08-32.31,13.18a26.14,26.14,0,0,0-7.17,20.24C167.29-27.94,178.44-20,195.34-20h0c14.25,0,28-5.81,35.08-14.72a22.7,22.7,0,0,0,4.44-19.85C232-66.93,221.08-74.29,205.71-74.26ZM227.54-37c-6.29,8-19.24,13.3-32.21,13.33h0c-11.6,0-24.38-4.55-25.44-17.47a22.57,22.57,0,0,1,6.22-17.46c6.67-7.25,18.29-12,29.6-12,13.55,0,23.11,6.27,25.57,16.86A18.86,18.86,0,0,1,227.54-37Z" transform="translate(60.33 417.35)"/><path class="cls-4" d="M195.21-18.77c-17.51,0-29.09-8.42-30.2-22a27.4,27.4,0,0,1,7.49-21.17c7.67-8.34,20.39-13.54,33.2-13.57,16,0,27.34,7.71,30.35,20.64A23.85,23.85,0,0,1,231.37-34c-7.28,9.19-21.42,15.15-36,15.19ZM205.82-73c-12.26,0-24.3,4.92-31.51,12.78a24.92,24.92,0,0,0-6.86,19.31c1,12.16,11.64,19.72,27.76,19.72V-20l.12-1.22c13.9,0,27.29-5.63,34.13-14.26a21.52,21.52,0,0,0,4.21-18.81C230.93-66,220.52-73,205.82-73ZM195.33-22.44c-12.2,0-25.53-4.89-26.66-18.6a23.77,23.77,0,0,1,6.54-18.39c6.89-7.49,18.86-12.35,30.5-12.38h.1c14.1,0,24.07,6.65,26.67,17.8a20.08,20.08,0,0,1-4,17.77C222-28,208.66-22.47,195.33-22.44Zm10.48-48.15-.09,1.23c-11,0-22.26,4.57-28.71,11.59a21.39,21.39,0,0,0-5.9,16.53c1,12.06,13.11,16.35,24.12,16.35,12.71,0,25.27-5.2,31.35-12.87a17.69,17.69,0,0,0,3.51-15.69c-2.32-10-11.4-15.91-24.28-15.91Z" transform="translate(60.33 417.35)"/><path class="cls-4" d="M473.68-291.92c8.82,0,16.17-2.62,20.17-7.14a13.54,13.54,0,0,0,3.24-10.9c-1.2-10-9.83-16.48-22-16.45-11.87,0-25,6.78-25.91,19.24a10.49,10.49,0,0,0,3,8.06C456.34-294.65,464.57-291.9,473.68-291.92Zm1.45-30.82c8.08,0,17.14,3.45,18.32,13.22a9.88,9.88,0,0,1-2.35,8c-3.26,3.68-9.77,5.88-17.43,5.9-8,0-15.37-2.34-18.79-6a6.86,6.86,0,0,1-2-5.29C453.64-317.16,464.91-322.72,475.13-322.74Z" transform="translate(60.33 417.35)"/><path class="cls-4" d="M473.58-290.69c-9.39,0-17.93-2.91-22.28-7.58a11.72,11.72,0,0,1-3.31-9c1-13.2,14.71-20.35,27.13-20.38,12.84,0,21.91,6.89,23.19,17.54a14.77,14.77,0,0,1-3.55,11.86c-4.22,4.77-11.91,7.53-21.08,7.55Zm1.62-34.5c-11.39,0-23.89,6.38-24.77,18.11a9.34,9.34,0,0,0,2.66,7.14c3.9,4.19,11.75,6.8,20.49,6.8v1.22l.1-1.22c8.47,0,15.49-2.47,19.25-6.73a12.35,12.35,0,0,0,2.95-9.94C494.76-319.15,486.64-325.19,475.2-325.19Zm-1.52,30.83c-8.38,0-16.07-2.52-19.69-6.41a8,8,0,0,1-2.34-6.22c.82-11,12.71-16.95,23.48-17h.06c8.59,0,18.21,3.75,19.47,14.29a11,11,0,0,1-2.64,9C488.53-296.74,481.68-294.38,473.68-294.36Zm1.51-28.38-.06,1.22c-9.67,0-20.32,5.19-21,14.71a5.57,5.57,0,0,0,1.68,4.37c3.18,3.42,10.16,5.63,17.8,5.63,7.4,0,13.57-2.07,16.61-5.49a8.64,8.64,0,0,0,2-7.07c-1.07-9-9.51-12.15-17-12.15Z" transform="translate(60.33 417.35)"/><path class="cls-4" d="M83.78,99.57a13.85,13.85,0,0,0-8.06,2.65c-8,5.64-10.56,16.75-6.66,29C73.14,144,84.44,157,98.15,157h0a22.56,22.56,0,0,0,8.58-1.74c6.5-2.65,9-10.07,7-20.35C110.51,118.53,96.72,99.54,83.78,99.57Zm21.56,52.26a19,19,0,0,1-7.2,1.47h0c-11.94,0-21.91-11.65-25.58-23.21-3.45-10.81-1.47-20.11,5.27-24.87a10.35,10.35,0,0,1,6-2c11.06,0,23.46,17.68,26.37,32.35C111.12,140.52,111.8,149.19,105.34,151.83Z" transform="translate(60.33 417.35)"/><path class="cls-4" d="M98.1,158.2c-14.27,0-26-13.39-30.21-26.62-4.06-12.76-1.33-24.4,7.12-30.36a15.08,15.08,0,0,1,8.76-2.87c13.53,0,27.86,19.51,31.18,36.29,2.16,10.91-.67,18.82-7.75,21.72a24,24,0,0,1-9,1.84ZM83.81,100.8a12.65,12.65,0,0,0-7.39,2.42c-7.55,5.32-9.92,15.91-6.2,27.62C74.16,143.22,85,155.75,98.1,155.75V157l0-1.23a21.4,21.4,0,0,0,8.13-1.65c5.9-2.41,8.19-9.33,6.28-19C109.41,119.24,96.17,100.8,83.81,100.8Zm14.34,53.73c-12.56,0-23-12.11-26.76-24.07-3.61-11.35-1.47-21.16,5.74-26.24a11.41,11.41,0,0,1,6.65-2.2h0c11.79,0,24.49,17.92,27.54,33.33,1.81,9.16-.16,15.41-5.54,17.62A20.32,20.32,0,0,1,98.15,154.53ZM83.81,103.24l0,1.23a9,9,0,0,0-5.25,1.75c-6.29,4.44-8.09,13.22-4.82,23.5,3.54,11.12,13,22.36,24.38,22.36a18,18,0,0,0,6.78-1.38c5.64-2.31,5-10.31,4.07-14.87-2.8-14.12-15-31.36-25.14-31.36Z" transform="translate(60.33 417.35)"/><path class="cls-4" d="M317.17,324.6c-13.84,0-25.05,3.36-30,8.9a11.43,11.43,0,0,0-3,9.22c1.62,14.22,20.92,21.86,38.27,21.82h0c14.18,0,30.31-5.45,33-20.56a10.36,10.36,0,0,0-2.47-8.65C346.77,327.88,330.51,324.57,317.17,324.6Zm34.7,18.73c-2.31,12.88-16.7,17.51-29.41,17.54h0c-16,0-33.28-6.9-34.61-18.57a7.81,7.81,0,0,1,2.08-6.36c4.18-4.7,14.62-7.64,27.25-7.66,14.77,0,28.35,3.83,33,9.41A6.56,6.56,0,0,1,351.87,343.33Z" transform="translate(60.33 417.35)"/><path class="cls-4" d="M322.34,365.76c-17.82,0-37.67-8-39.35-22.9a12.61,12.61,0,0,1,3.28-10.18c5.16-5.79,16.71-9.27,30.9-9.3,13.74,0,30.32,3.45,36.78,11.16a11.52,11.52,0,0,1,2.74,9.66c-2.84,15.85-19.54,21.53-34.22,21.56Zm-5-39.93c-13.67,0-24.54,3.2-29.24,8.48a10.25,10.25,0,0,0-2.68,8.27c1.53,13.47,20.16,20.73,36.92,20.73v1.23l.13-1.23c13.69,0,29.23-5.18,31.81-19.55a9.1,9.1,0,0,0-2.2-7.64C346.12,329,330.34,325.83,317.34,325.83Zm5.13,36.26c-16.59,0-34.44-7.35-35.83-19.65a9.08,9.08,0,0,1,2.37-7.32c4.41-4.94,15.2-8,28.16-8.07h.2c15.26,0,28.83,4,33.77,9.85a7.88,7.88,0,0,1,1.94,6.65C350.63,357.17,335.66,362.06,322.47,362.09Zm-5.1-33.82-.19,1.23c-12.29,0-22.38,2.81-26.34,7.25a6.55,6.55,0,0,0-1.77,5.42c1.24,10.94,17.89,17.47,33.27,17.47,12.33,0,26.15-4.38,28.33-16.52a5.41,5.41,0,0,0-1.4-4.65c-4.44-5.28-17.55-9-31.9-9Z" transform="translate(60.33 417.35)"/><path class="cls-4" d="M648.6,261.83c-11,0-24.41,11.81-28.58,21.94-2.29,5.58-1.74,10.45,1.55,13.73a13,13,0,0,0,9.45,3.56h0c10.15,0,22.9-8.45,27.85-18.41,2.94-5.91,2.66-11.68-.79-16.25A11.35,11.35,0,0,0,648.6,261.83Zm7,19.19c-4.25,8.55-16,16.35-24.57,16.37h0a9.27,9.27,0,0,1-6.85-2.49c-2.78-2.77-1.94-6.82-.74-9.73,4-9.72,16.71-19.65,25.18-19.67a7.73,7.73,0,0,1,6.55,3.11C658.44,273,657.2,277.76,655.58,281Z" transform="translate(60.33 417.35)"/><path class="cls-4" d="M631,302.29a14.16,14.16,0,0,1-10.26-3.92c-3.67-3.65-4.32-9-1.82-15.06,4.31-10.48,18.22-22.68,29.7-22.71a12.58,12.58,0,0,1,10.47,5.06c3.74,5,4.06,11.19.9,17.53-5.13,10.33-18.38,19.07-28.94,19.1Zm17.66-39.24c-10.59,0-23.45,11.41-27.48,21.19-2.09,5.09-1.64,9.49,1.28,12.39a11.77,11.77,0,0,0,8.54,3.21v1.22l0-1.22c9.74,0,22-8.14,26.76-17.74,2.72-5.47,2.49-10.78-.66-15A10.22,10.22,0,0,0,648.63,263.05ZM631,298.62a10.5,10.5,0,0,1-7.72-2.85c-2.58-2.57-2.93-6.4-1-11.07,4.23-10.28,17.26-20.4,26.31-20.43h0a8.9,8.9,0,0,1,7.5,3.6c3.66,4.86,2.32,10.13.55,13.69C652.25,290.46,640,298.6,631,298.62Zm17.62-33.12,0,1.22c-7.92,0-20.29,9.74-24.06,18.92-1.06,2.56-1.83,6.1.47,8.39a8.11,8.11,0,0,0,6,2.14c8.25,0,19.44-7.5,23.52-15.7,1.46-3,2.6-7.26-.31-11.13a6.51,6.51,0,0,0-5.55-2.62Z" transform="translate(60.33 417.35)"/><path class="cls-4" d="M772.87-137.45c-5.81,5-7.54,12.21-4.72,19.76,2.73,7.34,9,12.87,14.67,12.85a7.88,7.88,0,0,0,3.94-1c4.19-2.41,5.34-8.9,3.08-17.36-2.06-7.68-6.91-15.93-12.71-15.92A6.53,6.53,0,0,0,772.87-137.45Zm13.42,15.17c1.73,6.45,1.18,11.76-1.36,13.22a4.14,4.14,0,0,1-2.12.55c-4,0-9.07-4.68-11.22-10.46-1.32-3.54-2.6-10.29,3.68-15.7a2.87,2.87,0,0,1,1.87-.81C780.23-135.48,784.34-129.56,786.29-122.28Z" transform="translate(60.33 417.35)"/><path class="cls-4" d="M782.8-103.61c-6.11,0-12.9-5.87-15.8-13.65-3-8.06-1.15-15.76,5.07-21.12a7.63,7.63,0,0,1,5.06-2c6.49,0,11.65,8.45,13.89,16.83,2.42,9,1.05,16-3.65,18.73a9.1,9.1,0,0,1-4.55,1.2Zm-5.65-34.31a5.25,5.25,0,0,0-3.48,1.4c-5.4,4.65-7,11.36-4.37,18.4,2.56,6.88,8.36,12.06,13.5,12.06v1.22l0-1.22a6.6,6.6,0,0,0,3.33-.88c3.68-2.11,4.62-8.08,2.5-16C786.66-130.37,782.06-137.92,777.15-137.92Zm5.66,30.64c-4.59,0-10-5-12.37-11.26-1.43-3.85-2.81-11.17,4-17.06a4.06,4.06,0,0,1,2.67-1.1h0c4.25,0,8.49,7.27,10.32,14.11,1.9,7.1,1.15,12.83-1.93,14.59A5.33,5.33,0,0,1,782.81-107.28Zm-5.66-28.2v1.23a1.6,1.6,0,0,0-1.07.51c-5.72,4.92-4.54,11.1-3.34,14.34,2,5.24,6.57,9.67,10.07,9.67a3,3,0,0,0,1.52-.39c1.71-1,2.52-5.36.79-11.84-1.88-7-5.76-12.29-8-12.29Z" transform="translate(60.33 417.35)"/><path class="cls-4" d="M256.77-316.25h0c16.09,0,38.55-10.95,47.12-22.9,3.42-4.76,4.49-9.49,3.08-13.66-2.24-6.68-8.27-10.2-17.43-10.18-17.42,0-41.69,12.82-49,25.8-2.73,4.84-2.92,9.46-.56,13.38C243-318.85,248.78-316.23,256.77-316.25Zm-13-19.14c6.65-11.81,29.77-23.89,45.81-23.93,7.54,0,12.23,2.57,13.94,7.68,1,3.05.16,6.53-2.58,10.35-8,11.15-29,21.34-44.15,21.37-4.62,0-10.74-1-13.64-5.79C241.46-328.46,241.67-331.72,243.74-335.39Z" transform="translate(60.33 417.35)"/><path class="cls-4" d="M256.7-315c-8.41,0-14.55-2.83-17.77-8.16-2.6-4.31-2.41-9.36.54-14.61,7.49-13.29,32.29-26.38,50.07-26.42,9.77,0,16.17,3.81,18.59,11,1.54,4.56.41,9.67-3.24,14.77-8.76,12.21-31.7,23.37-48.11,23.41Zm32.93-46.74c-17.15,0-40.9,12.51-48,25.17-2.49,4.43-2.69,8.63-.57,12.14,2.75,4.57,8.17,7,15.67,7v1.22l.07-1.22c15.76,0,37.75-10.71,46.13-22.39,3.18-4.43,4.19-8.78,2.91-12.56C303.22-360.14,295.58-361.76,289.63-361.76Zm-32.86,43.07c-5,0-11.51-1.11-14.69-6.39-1.91-3.16-1.71-6.83.59-10.91,6.83-12.12,30.48-24.51,46.88-24.55h.08c8.07,0,13.13,2.86,15,8.51,1.16,3.44.24,7.3-2.74,11.46C293.72-329.16,272.2-318.73,256.77-318.69Zm32.86-40.63-.07,1.23c-15.69,0-38.28,11.8-44.76,23.3-1.83,3.26-2,6.1-.63,8.45,2.59,4.3,8.25,5.2,12.53,5.2,14.84,0,35.41-10,43.22-20.86,2.49-3.48,3.31-6.6,2.42-9.25-1.53-4.54-5.8-6.84-12.71-6.84Z" transform="translate(60.33 417.35)"/><path class="cls-4" d="M87.11,166.64a12.07,12.07,0,0,0-2.16.21c-5.28,1-7.91,5.8-7.23,13.25,1,10.17,8.66,25.24,17.39,25.22h0A7.6,7.6,0,0,0,99.39,204c5.54-3.71,7.33-12,4.56-21.06C101.47,174.8,95.31,166.63,87.11,166.64Zm10.24,34.28a4,4,0,0,1-2.25.73c-5.46,0-12.77-11.65-13.72-21.89-.29-3.13-.12-8.5,4.23-9.3a8.57,8.57,0,0,1,1.51-.14c6.28,0,11.31,7.07,13.32,13.66C102.18,189.68,102.41,197.53,97.35,200.92Z" transform="translate(60.33 417.35)"/><path class="cls-4" d="M95.09,206.54c-9.7,0-17.61-15.84-18.58-26.33-.75-8,2.32-13.48,8.22-14.57,10-1.8,17.56,7.64,20.39,16.92,2.93,9.6.95,18.41-5.05,22.43a8.75,8.75,0,0,1-4.95,1.55Zm-8-38.67a10.86,10.86,0,0,0-2,.18c-6.27,1.16-6.59,8-6.23,11.94.88,9.48,8.21,24.11,16.15,24.11v1.22l0-1.22a6.38,6.38,0,0,0,3.6-1.15c5.08-3.4,6.68-11.13,4.07-19.68C100.44,175.6,94.7,167.87,87.14,167.87Zm8,35c-6.6,0-14-13-14.94-23-.56-6.13,1.29-9.9,5.23-10.63a10,10,0,0,1,1.72-.16h0c6.89,0,12.33,7.54,14.47,14.53,1.86,6.1,2,14.55-3.58,18.32A5.11,5.11,0,0,1,95.1,202.87Zm-8-32.55,0,1.22a7,7,0,0,0-1.28.12c-3.41.63-3.49,5.28-3.24,8,.93,10,8.13,20.78,12.49,20.78a2.73,2.73,0,0,0,1.57-.52c4.51-3,4.23-10.28,2.61-15.57-1.88-6.17-6.48-12.8-12.13-12.8Z" transform="translate(60.33 417.35)"/><path class="cls-4" d="M391.41-.25c-1.09,5.26.39,10.56,4.27,15.33,9,11,30.77,18.92,51.86,18.87h0c11.46,0,21.29-2.4,28.42-6.87,8.37-5.24,12.78-13.29,12.75-23.28-.06-26.26-24.41-39.94-48.43-39.88C421.17-36,396.9-26.63,391.41-.25ZM440.3-32.41C462.49-32.46,485-20,485.05,3.81c0,8.78-3.69,15.56-11,20.16-6.55,4.1-15.71,6.29-26.49,6.31h0c-20.08,0-40.69-7.32-49-17.52C395.32,8.82,394.14,4.69,395,.49,400.05-23.73,422.56-32.37,440.3-32.41Z" transform="translate(60.33 417.35)"/><path class="cls-4" d="M447.36,35.17c-21.37,0-43.5-8.12-52.62-19.32C390.61,10.79,389,5.13,390.22-.5c5.63-27.09,30.49-36.76,50.06-36.8C465-37.3,489.88-23.19,490,3.8c0,10.43-4.58,18.84-13.33,24.31-7.32,4.6-17.37,7-29.07,7.06Zm-6.93-70c-18.8,0-42.48,9.2-47.82,34.86-1,4.88.38,9.83,4,14.3,8.7,10.68,30,18.43,50.73,18.43V34l.18-1.22c11.24,0,20.85-2.34,27.78-6.69A25,25,0,0,0,487.5,3.8C487.44-21.58,463.78-34.86,440.43-34.86Zm7.11,66.36c-20.54,0-41.47-7.56-50-18-3.45-4.24-4.72-8.71-3.77-13.29C399-24.69,422.1-33.59,440.29-33.63h.14c22.74,0,45.79,12.86,45.85,37.44,0,9.23-3.89,16.36-11.6,21.19C467.93,29.23,458.55,31.48,447.54,31.5Zm-7.11-63.91-.13,1.22c-17.28,0-39.2,8.43-44.09,31.93-.8,3.82.3,7.61,3.27,11.24,8.06,9.9,28.2,17.08,47.87,17.08,10.73,0,19.67-2.15,26-6.13,6.95-4.36,10.47-10.79,10.45-19.12-.05-23-21.87-35-43.4-35Z" transform="translate(60.33 417.35)"/><path class="cls-4" d="M491.47-37.69c.87,11.06,12.65,17,23.28,17,11.22,0,18.83-6.23,19.41-15.81a13.79,13.79,0,0,0-3.69-10.59c-3.68-3.9-9.94-6.13-17.18-6.11-7.7,0-14.86,2.6-18.69,6.75A11.35,11.35,0,0,0,491.47-37.69ZM497.3-44c3.11-3.37,9.39-5.56,16-5.57,6.14,0,11.56,1.84,14.51,5a10.09,10.09,0,0,1,2.68,7.85C530-27.65,522-24.39,514.75-24.38c-9.12,0-18.95-5.06-19.62-13.6A7.67,7.67,0,0,1,497.3-44Z" transform="translate(60.33 417.35)"/><path class="cls-4" d="M514.69-19.48c-11.16,0-23.51-6.35-24.44-18.12a12.56,12.56,0,0,1,3.45-9.7c4.05-4.39,11.56-7.13,19.59-7.15,7.63,0,14.18,2.37,18.07,6.5a15,15,0,0,1,4,11.5c-.62,10.28-8.71,16.94-20.62,17ZM513.38-52c-7.46,0-14.28,2.45-17.88,6.36a10.18,10.18,0,0,0-2.81,7.85c.81,10.3,11.94,15.86,22,15.86v1.22l.06-1.22c10.51,0,17.65-5.78,18.19-14.66a12.61,12.61,0,0,0-3.36-9.68C526.15-49.91,520.24-52,513.38-52Zm1.37,28.85c-9.7,0-20.11-5.51-20.84-14.74a8.85,8.85,0,0,1,2.49-6.92c3.33-3.61,10-5.95,16.9-6h.07c6.44,0,12.17,2,15.33,5.35a11.27,11.27,0,0,1,3,8.76C531.12-26.73,522.56-23.17,514.75-23.15Zm-1.38-26.4-.06,1.22c-6.3,0-12.23,2-15.11,5.18a6.54,6.54,0,0,0-1.86,5.07c.63,7.81,9.82,12.48,18.35,12.48,6.75,0,14.09-3,14.58-11.21a8.9,8.9,0,0,0-2.35-6.94c-2.71-2.87-7.77-4.58-13.55-4.58Z" transform="translate(60.33 417.35)"/><path class="cls-4" d="M756.16,208.24c-8.45,6.68-17.39,13.57-28,15.41-11.67,2-23.79-2.37-35.42-.1-13.94,2.72-24.29,14.31-37.14,20.34s-27.39,6.22-41.5,6.34c-23.16.2-46.35.39-69.49-.29,4.54,8.84,5,18.61,1.24,29.11-9.1,25.49-34.72,39.53-72.11,39.53h0c-39,0-81.91-15.89-99.93-36.95-6.85-8-9.68-16.19-8.41-24.3,2-12.47,9.72-21.86,20.61-28.71q-10.83-2.24-21.63-4.52c-19.23-4-38.74-8.2-56.18-17.24-20.19-10.47-36.53-26.92-52.45-43.15q-80-81.54-157.95-165c-12.94-13.86-26-28-34.8-44.76C52.2-66.62,48.38-90.13,47-113.3a355.94,355.94,0,0,1,7.19-95C-13.36-73.32-6.73,97.38,72.13,221.51c73.2,115.2,208,186.77,351.89,186.78h0c143,0,268.21-69,343.58-189.37q10.82-17.28,19.78-35.33Zm-657.24-5a7.59,7.59,0,0,1-4.28,1.34h0c-8.73,0-16.41-15.09-17.33-25.26-.67-7.46,2-12.28,7.25-13.24a12.25,12.25,0,0,1,2.17-.2c8.19,0,14.34,8.19,16.8,16.31C106.28,191.24,104.47,199.51,98.92,203.21Zm7.45-48.73a22.59,22.59,0,0,1-8.58,1.73h0c-13.7,0-25-13-29-25.84-3.87-12.24-1.29-23.34,6.72-29a13.88,13.88,0,0,1,8.07-2.63c12.94,0,26.69,19,29.89,35.38C115.45,144.43,112.87,151.84,106.37,154.48ZM354.69,343.81c-2.75,15.1-18.88,20.48-33.06,20.48h0c-17.34,0-36.63-7.68-38.21-21.91a11.45,11.45,0,0,1,3-9.21c4.95-5.53,16.17-8.83,30-8.83,13.34,0,29.59,3.35,35.82,10.81A10.34,10.34,0,0,1,354.69,343.81Zm303.53-60.63c-5,9.95-17.75,18.35-27.9,18.35h0a13,13,0,0,1-9.44-3.59c-3.29-3.28-3.82-8.16-1.52-13.72C623.55,274.1,637,262.33,648,262.33a11.37,11.37,0,0,1,9.48,4.6C660.9,271.5,661.17,277.28,658.22,283.18Z" transform="translate(60.33 417.35)"/><path class="cls-4" d="M424.06,409.52h0c-144.27,0-279.5-71.8-352.92-187.35C32.35,161.18,10.2,88.07,7,10.73c-3.15-77.12,12.78-153,46.07-219.54l4.27-8.54-2,9.34a354.53,354.53,0,0,0-7.17,94.64C49.9-85.25,54.94-64,64.06-46.63,72.94-29.68,86.61-15,98.67-2.14c51.72,55.37,104.85,110.88,157.93,165,14.86,15.14,31.7,32.31,52.14,42.91,17.42,9,37,13.15,55.87,17.13q10.8,2.28,21.63,4.53l3,.61-2.57,1.62c-11.54,7.26-18.29,16.63-20.05,27.86-1.21,7.74,1.52,15.59,8.13,23.31,17.81,20.82,60.37,36.52,99,36.53,36.86,0,62.06-13.75,71-38.72,3.61-10.12,3.21-19.59-1.18-28.15l-.95-1.84,2.07.06c11.1.33,22.84.48,37,.48,10.83,0,21.66-.09,32.49-.18,13.23-.11,28.22-.24,41-6.23a100.77,100.77,0,0,0,14.13-8.66c7.16-5,14.56-10.07,23.3-11.77a40.13,40.13,0,0,1,7.82-.69c3.52,0,7.09.33,10.54.66,5.88.56,12.19,1,17.08.13,10.56-1.84,19.54-8.92,27.45-15.17l35.54-28-2.44,4.89c-6.08,12.19-12.75,24.11-19.84,35.43C693.07,340.28,567.46,409.52,424.06,409.52Zm0-1.22v-1.23c142.55,0,267.4-68.81,342.54-188.8,6.08-9.71,11.86-19.88,17.21-30.28l-26.88,21.22c-8.15,6.42-17.38,13.71-28.55,15.65-5.16.9-11.7.47-17.73-.1-3.4-.33-6.91-.66-10.31-.66a37.81,37.81,0,0,0-7.36.65c-8.23,1.61-15.1,6.35-22.37,11.38A102.32,102.32,0,0,1,656.11,245c-13.24,6.21-28.52,6.34-42,6.46-10.83.09-21.67.18-32.51.18-13.29,0-24.49-.14-35-.42,3.87,8.68,4,18.17.42,28.24-9.29,26-35.31,40.34-73.26,40.34-39.29,0-82.66-16.07-100.88-37.38-7.09-8.29-10-16.8-8.69-25.27,1.75-11.13,8-20.51,18.69-27.93l-18.75-3.92c-19.07-4-38.78-8.17-56.5-17.36-20.79-10.78-37.77-28.09-52.76-43.37-53.09-54.13-106.23-109.66-158-165-12.16-13-25.95-27.78-35-45C52.6-63.22,47.48-84.75,45.78-113.23a355.32,355.32,0,0,1,5.37-86C-12.49-64.71-4.16,99.15,73.17,220.85c73,114.86,207.41,186.21,350.85,186.22ZM321.63,365.51c-17.88,0-37.78-8.06-39.43-23a12.59,12.59,0,0,1,3.3-10.17c5.18-5.78,16.73-9.23,30.92-9.23,13.62,0,30.28,3.48,36.76,11.25A11.54,11.54,0,0,1,355.9,344C353,359.87,336.3,365.51,321.63,365.51Zm-5.21-39.94c-13.5,0-24.38,3.14-29.09,8.41a10.27,10.27,0,0,0-2.7,8.27c1.5,13.52,20.18,20.82,37,20.82,13.69,0,29.25-5.12,31.87-19.48a9.15,9.15,0,0,0-2.19-7.65C345.32,328.77,329.48,325.57,316.42,325.57Zm313.9-22.82A14.19,14.19,0,0,1,620,298.81c-3.65-3.65-4.29-9-1.78-15.06,4.34-10.47,18.28-22.64,29.76-22.64a12.59,12.59,0,0,1,10.46,5.08c3.72,5,4,11.2.86,17.54C654.16,294,640.88,302.75,630.32,302.75ZM648,263.56c-10.56,0-23.45,11.35-27.49,21.13-2.11,5.08-1.67,9.48,1.24,12.39a11.81,11.81,0,0,0,8.58,3.23c9.74,0,22-8.1,26.8-17.68,2.74-5.46,2.51-10.78-.63-15A10.22,10.22,0,0,0,648,263.56ZM94.64,205.77c-9.72,0-17.6-15.87-18.55-26.37-.72-8,2.36-13.48,8.26-14.56a13.67,13.67,0,0,1,2.38-.21c8.82,0,15.38,8.63,18,17.17,2.91,9.62.91,18.42-5.1,22.43A8.87,8.87,0,0,1,94.64,205.77Zm-7.91-38.69a11.77,11.77,0,0,0-2,.17c-6.27,1.15-6.61,8-6.25,11.93.85,9.5,8.16,24.14,16.11,24.15a6.44,6.44,0,0,0,3.6-1.14c5.09-3.39,6.71-11.12,4.12-19.68C100,174.83,94.3,167.08,86.73,167.08Zm11.06-9.65c-14.3,0-26-13.43-30.2-26.69-4-12.77-1.28-24.4,7.19-30.34a15.07,15.07,0,0,1,8.77-2.85c13.5,0,27.8,19.55,31.09,36.36,2.13,10.92-.71,18.83-7.81,21.71A23.94,23.94,0,0,1,97.79,157.43ZM83.55,100a12.65,12.65,0,0,0-7.36,2.4c-7.57,5.31-10,15.89-6.27,27.61,3.92,12.41,14.75,25,27.87,25a21.36,21.36,0,0,0,8.12-1.63c5.91-2.4,8.21-9.31,6.33-19C109.13,118.48,95.92,100,83.55,100Z" transform="translate(60.33 417.35)"/><path class="cls-4" d="M645.94,214.75a82.16,82.16,0,0,0-33.5-3.06c-5.4.62-10.84,1.84-15.46,4.7s-8.31,7.59-8.83,13c12.36,5.62,26.64,4.86,40.09,2.88,8.41-1.25,18.33-4.32,20.44-12.56a4.1,4.1,0,0,0-.52-3.8A4.84,4.84,0,0,0,645.94,214.75Z" transform="translate(60.33 417.35)"/><path class="cls-4" d="M610.78,235h0c-9,0-16.54-1.46-23.14-4.46l-.8-.36.09-.87c.52-5.39,4-10.6,9.41-13.92,4.09-2.54,9.16-4.09,16-4.88a83.37,83.37,0,0,1,34,3.12,5.85,5.85,0,0,1,2.76,1.49c1.05,1.14,1.33,2.9.81,4.94-1.82,7.1-9,11.62-21.45,13.46A120.33,120.33,0,0,1,610.78,235Zm-21.3-6.32c6.08,2.6,13.06,3.87,21.3,3.87h0a116.83,116.83,0,0,0,17.28-1.46c11.35-1.67,17.89-5.59,19.44-11.64.14-.57.41-2-.24-2.68a4.12,4.12,0,0,0-1.68-.81,80.94,80.94,0,0,0-33-3c-6.43.74-11.18,2.18-15,4.51C593.2,220.17,590.21,224.31,589.48,228.64Z" transform="translate(60.33 417.35)"/><path class="cls-4" d="M295.89,169.37c3.6-1.69,5.71-5.69,6.06-9.65s-.82-7.9-2.29-11.59a94,94,0,0,0-14.2-23.5c-6.72-8.45-15.66-16.77-26.46-16.6-2.44,0-5,.61-6.73,2.34-3.78,3.8-1.31,10.17,1.35,14.83q5.24,9.2,10.51,18.38c4.75,8.26,9.7,16.73,17.26,22.53C285.53,169.29,291.17,171.58,295.89,169.37Z" transform="translate(60.33 417.35)"/><path class="cls-4" d="M291.82,171.47h0c-4.75,0-9-2.75-11.18-4.39-7.91-6.07-13-15-17.57-22.89q-5.28-9.18-10.52-18.38c-5.22-9.18-3.51-13.93-1.15-16.31,1.7-1.71,4.32-2.64,7.58-2.69h.34c9.11,0,18,5.58,27.1,17.06,6.61,8.32,11.31,16.11,14.38,23.81,1.31,3.28,2.76,7.64,2.36,12.15-.41,4.81-3,8.89-6.75,10.65A10.72,10.72,0,0,1,291.82,171.47Zm-32.5-62.22H259c-1.82,0-4.32.39-5.89,2-3.18,3.21-.92,9,1.55,13.36q5.24,9.19,10.51,18.38c4.42,7.69,9.42,16.4,16.94,22.17,1.89,1.45,5.66,3.88,9.69,3.88h0a8.45,8.45,0,0,0,3.56-.76c2.91-1.37,5-4.76,5.35-8.64s-1-8-2.21-11c-3-7.47-7.55-15.06-14-23.18C275.87,114.53,267.64,109.25,259.32,109.25Z" transform="translate(60.33 417.35)"/><path class="cls-4" d="M319.44,186.06c3.79,2.15,6.11,6.37,10,8.32,6.13,3.05,14.62-2,14.79-8.89s-6.16-11.86-11.86-15.68a25.92,25.92,0,0,0-7.43-3.9c-7.34-2-16.05,4.72-14.82,12.23a7.49,7.49,0,0,0,1.61,3.7C313.65,184.09,316.87,184.6,319.44,186.06Z" transform="translate(60.33 417.35)"/><path class="cls-4" d="M333.39,196.5h0a9.91,9.91,0,0,1-4.49-1,21.54,21.54,0,0,1-5.57-4.52,21,21,0,0,0-4.49-3.83,21.6,21.6,0,0,0-2.7-1.22,12.8,12.8,0,0,1-5.34-3.26,8.78,8.78,0,0,1-1.89-4.3,11,11,0,0,1,2.73-9c3.34-3.93,9-5.89,13.62-4.63a27.55,27.55,0,0,1,7.79,4.06c6.24,4.19,12.59,9.45,12.41,16.73C345.31,191.37,339.66,196.5,333.39,196.5Zm-11.17-29.72A11.8,11.8,0,0,0,313.5,171a8.63,8.63,0,0,0-2.17,7,6.28,6.28,0,0,0,1.33,3.11,10.87,10.87,0,0,0,4.39,2.58,24.3,24.3,0,0,1,3,1.36,23.47,23.47,0,0,1,5,4.25,19.29,19.29,0,0,0,4.91,4,7.49,7.49,0,0,0,3.4.78c4.44,0,9.49-3.68,9.62-8.6.16-6.1-5.63-10.82-11.32-14.64a25.14,25.14,0,0,0-7.07-3.73A9.51,9.51,0,0,0,322.22,166.78Z" transform="translate(60.33 417.35)"/><path class="cls-4" d="M121.1-27.29c1-12.3-9.9-22.18-13.28-34.05-1.4-4.89-1.51-10.18-3.7-14.77-4-8.28-13.61-12.18-22.69-13.46-2.34-.34-5-.45-6.75,1.16-1.47,1.36-1.79,3.54-1.93,5.54C70.83-55.53,88.33-27.94,113.87-18c1.52.58,3.41,1.05,4.61,0a4.67,4.67,0,0,0,1.1-2.21A37.46,37.46,0,0,0,121.1-27.29Z" transform="translate(60.33 417.35)"/><path class="cls-4" d="M116.59-16.19h0a8.91,8.91,0,0,1-3.16-.7c-26.25-10.19-43.88-38-41.9-66.06.15-2.23.55-4.72,2.32-6.36A7.15,7.15,0,0,1,78.94-91a19.71,19.71,0,0,1,2.66.21c6.76,1,18.81,4.07,23.63,14.15a36.22,36.22,0,0,1,2.57,9.39c.34,1.86.68,3.78,1.19,5.58,1.3,4.53,3.8,8.89,6.21,13.1C119-41.9,123-35,122.32-27.19a37.8,37.8,0,0,1-1.57,7.25,5.61,5.61,0,0,1-1.45,2.77A3.87,3.87,0,0,1,116.59-16.19ZM78.94-88.55a4.87,4.87,0,0,0-3.43,1c-1.14,1.05-1.41,2.89-1.54,4.73-1.87,26.61,15.48,54,40.35,63.61,1.65.64,2.76.72,3.33.19a3.58,3.58,0,0,0,.75-1.64,36.52,36.52,0,0,0,1.48-6.77c.59-7.07-3-13.33-6.8-20-2.49-4.34-5.06-8.83-6.44-13.65a57.91,57.91,0,0,1-1.24-5.81A33.9,33.9,0,0,0,103-75.59c-4.32-9-15.49-11.88-21.76-12.77A16.45,16.45,0,0,0,78.94-88.55Z" transform="translate(60.33 417.35)"/><path class="cls-4" d="M106-112.17c-1.18,14.18,11.46,28,25.69,28,3.09-5.26,2.66-12,.36-17.65s-6.25-10.44-10.14-15.13c-2.09-2.51-4.59-5.24-7.85-5.33C109.32-122.4,106.42-116.91,106-112.17Z" transform="translate(60.33 417.35)"/><path class="cls-4" d="M132.41-82.93h-.7A27,27,0,0,1,112.19-92a27,27,0,0,1-7.39-20.23c.45-5.44,3.8-11.22,9.11-11.22,4,.1,6.69,3,9,5.77,3.9,4.71,7.94,9.57,10.33,15.45,2.71,6.65,2.55,13.65-.43,18.73ZM114-121c-3.84,0-6.43,4.56-6.8,9A24.57,24.57,0,0,0,114-93.69a24.68,24.68,0,0,0,17,8.29c2.26-4.37,2.25-10.27-.06-15.95-2.25-5.52-6.17-10.24-10-14.81-2-2.43-4.21-4.81-6.93-4.88Z" transform="translate(60.33 417.35)"/><path class="cls-4" d="M521.05,86.19c-7.63-6.82-17.82-9.84-27.65-12.66-10.7-3.08-22.28-6.13-32.71-2.26C448,76,440.59,91.61,445,104.41a61.61,61.61,0,0,0,53.08,17.37,34.57,34.57,0,0,0,9.92-3,48.82,48.82,0,0,0,8.73-6.06c5.15-4.17,10.8-9.39,10.39-16C526.84,92.58,524.15,89,521.05,86.19Z" transform="translate(60.33 417.35)"/><path class="cls-4" d="M488.62,123.77h0a62.63,62.63,0,0,1-44.52-18.5l-.29-.46c-4.62-13.51,3.07-29.72,16.46-34.69a31.87,31.87,0,0,1,11.24-1.89c7.28,0,14.67,2,22.23,4.12,9.44,2.72,20.14,5.79,28.12,12.93,4,3.56,6.22,7.5,6.46,11.38.42,6.92-5,12.27-10.85,17a50.05,50.05,0,0,1-9,6.21A35.93,35.93,0,0,1,498.25,123,60.44,60.44,0,0,1,488.62,123.77Zm-42.58-20a61,61,0,0,0,42.58,17.57,56.54,56.54,0,0,0,9.23-.75,33.23,33.23,0,0,0,9.58-2.86,48.11,48.11,0,0,0,8.5-5.92c5.37-4.35,10.3-9.17,9.94-15-.25-4.07-3.2-7.53-5.64-9.7-7.56-6.77-18-9.77-27.17-12.41-7.38-2.12-14.59-4-21.55-4a29.23,29.23,0,0,0-10.39,1.74C449.22,76.83,442.1,91.71,446,103.75Z" transform="translate(60.33 417.35)"/><path class="cls-4" d="M585.56,56c-4.15-9.86-15.91-15.84-26.33-13.38S541,55.7,541.66,66.38a13.21,13.21,0,0,0,2.43,7.31C546,76.12,549,77.42,552,78.17a31.38,31.38,0,0,0,32.63-12.32,11,11,0,0,0,1.86-3.9A10.28,10.28,0,0,0,585.56,56Z" transform="translate(60.33 417.35)"/><path class="cls-4" d="M559,80.25h0a30.19,30.19,0,0,1-7.32-.89c-4-1-6.75-2.6-8.57-4.92a14.13,14.13,0,0,1-2.69-8C539.71,55.25,548,44,559,41.44a22.63,22.63,0,0,1,5.09-.58c9.7,0,19,6,22.65,14.69a11.24,11.24,0,0,1,1,6.64,12.12,12.12,0,0,1-2.05,4.35A32.6,32.6,0,0,1,559,80.25Zm5-36.94a19.49,19.49,0,0,0-4.53.52c-9.83,2.32-17.29,12.4-16.63,22.47a11.83,11.83,0,0,0,2.18,6.63c1.47,1.88,3.84,3.2,7.24,4a27.24,27.24,0,0,0,6.72.82,30.13,30.13,0,0,0,24.61-12.65,9.82,9.82,0,0,0,1.66-3.44,9,9,0,0,0-.85-5.21C581.17,48.73,572.78,43.31,564,43.31Z" transform="translate(60.33 417.35)"/><path class="cls-4" d="M558.63-238.38a84.41,84.41,0,0,0-33.11-18.27c-6.06-1.73-12.48-2.77-18.65-1.5s-12.06,5.19-14.37,11c-2.52,6.39-.34,13.9,4,19.25S506.88-219,513-215.95a137.86,137.86,0,0,0,31.64,11c7.36,1.57,16.07,2.1,21.36-3.26,4.08-4.14,4.73-10.82,2.84-16.33S563-234.5,558.63-238.38Z" transform="translate(60.33 417.35)"/><path class="cls-4" d="M553.7-202.6h0a44.56,44.56,0,0,1-9.28-1.1,139.62,139.62,0,0,1-31.91-11.15c-5.83-2.84-12.41-6.52-17-12.23-5-6.19-6.6-14.22-4.14-20.46,2.29-5.82,8.14-10.34,15.26-11.81,5.46-1.13,11.61-.65,19.24,1.52a85.77,85.77,0,0,1,33.58,18.54c3.51,3.14,8.42,8,10.6,14.4s1,13.4-3.13,17.59C563.83-204.18,559.39-202.6,553.7-202.6Zm-41.07-54.89a27.34,27.34,0,0,0-5.52.54c-6.31,1.3-11.48,5.25-13.47,10.3-2.14,5.44-.67,12.52,3.77,18,4.29,5.34,10.58,8.85,16.17,11.57a137.39,137.39,0,0,0,31.36,11,42.2,42.2,0,0,0,8.76,1h0c5,0,8.87-1.34,11.47-4,4-4,4.14-10.47,2.55-15.07-2-5.82-6.61-10.42-9.91-13.38a83.38,83.38,0,0,0-32.62-18A46.3,46.3,0,0,0,512.63-257.49Z" transform="translate(60.33 417.35)"/><path class="cls-4" d="M636.77-230.95a78.82,78.82,0,0,0-41.88-15.88c-2.8-.21-5.89-.16-8,1.66-3.16,2.7-2.55,7.75-1,11.6a36.37,36.37,0,0,0,23.1,20.9c6.43,1.88,13.67,1.84,19.5-1.46S638.25-224.42,636.77-230.95Z" transform="translate(60.33 417.35)"/><path class="cls-4" d="M617.49-210.19h0a31.3,31.3,0,0,1-8.84-1.31,37.87,37.87,0,0,1-23.9-21.61c-.84-2.06-3.22-9.11,1.32-13,1.63-1.39,3.79-2,6.79-2,.71,0,1.42,0,2.12.09a80.31,80.31,0,0,1,42.53,16.13l.35.27.1.43c1.53,6.75-2.19,14.38-8.86,18.16A23.35,23.35,0,0,1,617.49-210.19Zm-24.63-35.5c-2.39,0-4,.46-5.2,1.45-2.62,2.24-2,6.74-.64,10.21a35.35,35.35,0,0,0,22.32,20.18c6.72,2,13.5,1.51,18.55-1.34,5.52-3.13,8.79-9.53,7.77-15.06a77.88,77.88,0,0,0-40.86-15.36C594.16-245.66,593.51-245.69,592.86-245.69Z" transform="translate(60.33 417.35)"/><path class="cls-4" d="M303.24-255.54c5.77,1.55,11.92,2.47,17.67.87s11-6.29,11.63-12.22c.43-3.78-1-7.51-2.35-11.06-1.47-3.8-3.05-7.76-6.13-10.42-2.7-2.33-6.23-3.4-9.65-4.4l-20.16-5.91c-7.95-2.33-17.45-4.37-23.76,1-5.33,4.52-5.91,13-2.9,19.26s8.85,10.79,14.9,14.29A86.17,86.17,0,0,0,303.24-255.54Z" transform="translate(60.33 417.35)"/><path class="cls-4" d="M314.43-252.61h0a44.15,44.15,0,0,1-11.5-1.74,87.13,87.13,0,0,1-21.05-8.72c-7.83-4.53-12.72-9.23-15.39-14.82-3-6.37-2.92-15.53,3.21-20.73,2.92-2.48,6.59-3.68,11.24-3.68a50.2,50.2,0,0,1,13.66,2.45l20.15,5.91c3.36,1,7.17,2.1,10.11,4.64,3.38,2.93,5.1,7.35,6.47,10.9s2.9,7.48,2.42,11.65c-.79,7-6.85,11.67-12.51,13.25A25.2,25.2,0,0,1,314.43-252.61Zm-33.49-47.24c-4,0-7.2,1-9.66,3.1-5.12,4.35-5.16,12.42-2.58,17.8,2.45,5.12,7,9.49,14.4,13.76a84.19,84.19,0,0,0,20.46,8.47,41.58,41.58,0,0,0,10.87,1.66h0a22.81,22.81,0,0,0,6.15-.79c5.76-1.61,10.18-6.21,10.74-11.18.41-3.57-1-7.24-2.27-10.48-1.35-3.47-2.87-7.41-5.79-9.93-2.54-2.2-6.08-3.24-9.2-4.15l-20.15-5.91A47.66,47.66,0,0,0,280.94-299.85Z" transform="translate(60.33 417.35)"/><path class="cls-4" d="M344.78-207.83c5.73,1.21,12.83,2,16.37-2.72,4.19-5.52-.48-13.45-5.92-17.73a48.13,48.13,0,0,0-16.52-8.44c-4.94-1.42-10.77-1.86-14.77,1.38-5.64,4.56-4.18,14.17,1,19.23S337.68-209.33,344.78-207.83Z" transform="translate(60.33 417.35)"/><path class="cls-4" d="M352.17-205.7h0a36.88,36.88,0,0,1-7.64-.93c-6.59-1.4-14.8-3.13-20.42-8.6a17,17,0,0,1-5-12.56,11.4,11.4,0,0,1,4.05-8.51c3.67-3,9.22-3.5,15.88-1.6A49.78,49.78,0,0,1,356-229.24c6.34,5,10.64,13.5,6.14,19.43C360.06-207.08,356.71-205.7,352.17-205.7Zm-20.4-30.87a10.92,10.92,0,0,0-7.06,2.18,9,9,0,0,0-3.14,6.71,14.64,14.64,0,0,0,4.25,10.7c5.11,5,12.93,6.62,19.22,7.95a34.89,34.89,0,0,0,7.13.89h0c3.78,0,6.4-1,8-3.14,3.78-5-1.06-12.38-5.71-16a47.25,47.25,0,0,0-16.09-8.23A24.27,24.27,0,0,0,331.77-236.57Z" transform="translate(60.33 417.35)"/><path class="cls-4" d="M730.21,15.62q15.54,2.88,31.27,4.55c5.41.57,11.4.89,15.73-2.4a14,14,0,0,0,4.92-8.14c1.82-8-1.88-16.4-7.66-22.16s-13.38-9.3-21-12.33c-9-3.62-18.81-6.75-28.38-4.95S706.59-19.64,707.39-9.93c.34,4.15,2.35,8,4.31,11.62s4.19,7.74,7.72,10.22C722.56,14.12,726.44,14.92,730.21,15.62Z" transform="translate(60.33 417.35)"/><path class="cls-4" d="M767.18,21.76h0a56.67,56.67,0,0,1-5.83-.37c-10.48-1.12-21-2.65-31.37-4.57-4.08-.75-8-1.62-11.26-3.91-3.85-2.69-6.1-6.92-8.1-10.64s-4.08-7.63-4.45-12.1c-.88-10.73,9-19.35,18.74-21.18a32.88,32.88,0,0,1,6-.55c8.07,0,16.18,2.81,23,5.56,7.59,3,15.42,6.67,21.37,12.6,6.68,6.67,9.74,15.59,8,23.3A15.26,15.26,0,0,1,778,18.75C775.24,20.8,771.82,21.76,767.18,21.76ZM730.93-29.11a29.56,29.56,0,0,0-5.56.51C716.71-27,707.84-19.41,708.61-10c.33,4,2.37,7.78,4.17,11.14s4,7.44,7.34,9.8c2.85,2,6.36,2.77,10.31,3.51,10.27,1.9,20.76,3.43,31.18,4.53a52.5,52.5,0,0,0,5.57.36c4.08,0,7-.8,9.3-2.51a12.84,12.84,0,0,0,4.46-7.44c1.57-6.89-1.24-14.95-7.33-21-5.63-5.61-13.21-9.11-20.55-12C746.41-26.39,738.58-29.11,730.93-29.11Z" transform="translate(60.33 417.35)"/><path class="cls-4" d="M785.58-35.65c-3.06,4.62-.68,11.36,3.91,14.46s10.59,3.26,16,2.25c4.65-.87,9.9-3.37,10.5-8.07.73-5.67-5.65-9.41-11.08-11.21C798.28-40.43,789.46-41.51,785.58-35.65Z" transform="translate(60.33 417.35)"/><path class="cls-4" d="M799.8-17.16h0a19.29,19.29,0,0,1-11-3c-4.88-3.3-7.82-10.74-4.24-16.15,2.15-3.24,5.74-4.88,10.68-4.88a33.21,33.21,0,0,1,10.09,1.83c8.13,2.69,12.58,7.38,11.92,12.53-.85,6.63-9,8.65-11.5,9.11A33,33,0,0,1,799.8-17.16Zm-4.56-21.61c-4.06,0-7,1.28-8.64,3.8-2.71,4.09-.35,10.11,3.57,12.77a16.92,16.92,0,0,0,9.63,2.59h0a29.84,29.84,0,0,0,5.5-.54c4.27-.79,9-3.05,9.52-7,.74-5.78-7.67-9-10.26-9.9A30.88,30.88,0,0,0,795.24-38.77Z" transform="translate(60.33 417.35)"/><path class="cls-4" d="M140.47-251c4.54,1.42,9.25,2.71,14,2.29S164-251.6,166-255.93c3.35-7.37-2.93-15.79-10.1-19.55a36.29,36.29,0,0,0-18.07-4.13c-6.08.21-12.9,2.68-15,8.4-1.72,4.73.54,10.18,4.24,13.58S135.67-252.48,140.47-251Z" transform="translate(60.33 417.35)"/><path class="cls-4" d="M152.57-247.38h0c-4.37,0-8.73-1.25-12.47-2.42-4.85-1.53-9.91-3.31-13.86-6.93-3.72-3.42-6.58-9.35-4.56-14.9,2.35-6.46,9.85-9,16.09-9.2a37.7,37.7,0,0,1,18.68,4.26c8,4.22,14.22,13.29,10.64,21.15-2,4.39-6.8,7.44-12.53,7.95C153.9-247.41,153.23-247.38,152.57-247.38Zm-13.54-31-1.18,0c-5.44.19-11.93,2.28-13.87,7.6-1.63,4.48.79,9.39,3.92,12.26,3.57,3.27,8.35,4.95,12.93,6.39,3.57,1.12,7.71,2.32,11.74,2.32h0c.59,0,1.18,0,1.77-.08,4.79-.43,8.91-3,10.52-6.53,2.94-6.46-2.67-14.36-9.55-18A35.19,35.19,0,0,0,139-278.41Z" transform="translate(60.33 417.35)"/><path class="cls-3" d="M329.86,299.59c8.91-12.45,6.87-31.47-4.49-41.74-13.22-12-33.38-10.68-51-8.23-1.72,10.19,1.94,20.75,8,29.14s14.31,14.91,22.74,20.9c5.73,4.06,13.1,8.08,19.39,4.95A15.29,15.29,0,0,0,329.86,299.59Z" transform="translate(60.33 417.35)"/><path class="cls-3" d="M251.9,308.44c7.76.71,15.23-5.65,16.65-13.32s-2.7-15.8-9.25-20-15.07-4.84-22.51-2.52a33.08,33.08,0,0,0-1.18,19.24C237.55,299.86,243.64,307.69,251.9,308.44Z" transform="translate(60.33 417.35)"/><path class="cls-3" d="M155.35,90.71a69.27,69.27,0,0,0-52.64-32.19c-3.32,7.45,1,16,6,22.47C115,89,122.42,96,130,102.88c4,3.65,8.29,7.36,13.51,8.87s11.7.11,14.41-4.6C160.81,102.1,158.41,95.68,155.35,90.71Z" transform="translate(60.33 417.35)"/><path class="cls-5" d="M603.24,323.18c-.66-3.67-3.39-6.73-6.64-8.56-4.78-2.69-10.51-3-16-2.8-6.44.22-13,1.07-18.75,4s-10.52,8.33-11.37,14.72c8.57,10.24,23.85,12.62,36.83,9.45C595.62,338,604.78,331.58,603.24,323.18Z" transform="translate(60.33 417.35)"/><path class="cls-4" d="M754.05,199.84c-9.64,2.17-18.66,9.41-26.19,15.7-1.46,1.22.4,3.17,1.9,2.46,8.85-4.14,19.12-8,26.41-14.52C757.9,202,756.06,199.39,754.05,199.84Z" transform="translate(60.33 417.35)"/><path class="cls-4" d="M729.09,219.38a3.09,3.09,0,0,1-2.83-2,2.46,2.46,0,0,1,.81-2.82c8.25-6.89,17.1-13.79,26.71-15.95a3.64,3.64,0,0,1,4.09,2.25,3.09,3.09,0,0,1-.88,3.5c-6.1,5.41-14,9-21.74,12.44-1.69.76-3.36,1.51-5,2.27A2.76,2.76,0,0,1,729.09,219.38ZM754.52,201c-9.28,2.07-17.86,8.77-25.88,15.47-.1.23.31.56.6.41,1.63-.76,3.31-1.51,5-2.28,7.53-3.38,15.31-6.88,21.12-12a.66.66,0,0,0,.22-.8A1.2,1.2,0,0,0,754.52,201Z" transform="translate(60.33 417.35)"/><path class="cls-4" d="M772.05,184.39c-1.2.56-2.45.88-3.67,1.42a8.38,8.38,0,0,0-1.68,1.42c-.61.54-1.16,1.15-1.72,1.72a2.49,2.49,0,0,0,3,3.9c1.13-.64,2.24-1.3,3.32-2,1.33-.87,1.93-2.43,2.92-3.61A1.81,1.81,0,0,0,772.05,184.39Z" transform="translate(60.33 417.35)"/><path class="cls-4" d="M766.77,194.41a3.82,3.82,0,0,1-3.45-2.38,3.54,3.54,0,0,1,.79-3.95l.48-.49c.42-.44.85-.88,1.3-1.27l.4-.39a5.55,5.55,0,0,1,1.59-1.23c.62-.28,1.25-.51,1.88-.73s1.19-.42,1.78-.69a3.11,3.11,0,0,1,4.12,1.42,3,3,0,0,1-.49,3.3,11.63,11.63,0,0,0-.86,1.22,8.55,8.55,0,0,1-2.32,2.64c-1.11.73-2.24,1.4-3.4,2A3.64,3.64,0,0,1,766.77,194.41Zm6.16-9a.91.91,0,0,0-.37.09c-.65.3-1.31.54-2,.78s-1.14.4-1.7.65a4.45,4.45,0,0,0-.87.74l-.51.49c-.4.35-.77.74-1.14,1.12l-.51.53a1.09,1.09,0,0,0-.27,1.28,1.26,1.26,0,0,0,1.8.7c1.11-.63,2.2-1.28,3.26-2a6.21,6.21,0,0,0,1.61-1.92,15.37,15.37,0,0,1,1-1.46.63.63,0,0,0,.15-.69A.55.55,0,0,0,772.93,185.41Z" transform="translate(60.33 417.35)"/><path class="cls-4" d="M200.52,80.64C194.16,71.51,184.71,64.47,177,56.5a243.68,243.68,0,0,1-27.69-34.34c-1.63-2.44-5.41-.29-4,2.32,6.11,11,12.58,21.84,20.33,31.8C173.86,66.86,183,79.74,195.13,86,198.38,87.71,202.93,84.09,200.52,80.64Z" transform="translate(60.33 417.35)"/><path class="cls-4" d="M196.91,87.68h0a5,5,0,0,1-2.34-.57C183.35,81.28,174.65,70,167,60l-2.31-3c-8.37-10.77-15-22.2-20.43-32a3.35,3.35,0,0,1,0-3.42,3.7,3.7,0,0,1,3.14-1.78,3.51,3.51,0,0,1,2.93,1.61,242.49,242.49,0,0,0,27.55,34.17c2.59,2.66,5.43,5.28,8.19,7.81,5.51,5.08,11.2,10.32,15.5,16.47a4.49,4.49,0,0,1,.37,4.78A5.74,5.74,0,0,1,196.91,87.68ZM147.36,22.31a1.23,1.23,0,0,0-1,.58.94.94,0,0,0,0,1c5.36,9.68,12,21,20.22,31.64l2.33,3c7.51,9.76,16,20.82,26.77,26.4a3.26,3.26,0,0,0,4-1.36,2.05,2.05,0,0,0-.22-2.24c-4.14-5.94-9.74-11.09-15.15-16.08-2.78-2.55-5.65-5.19-8.29-7.91a245.5,245.5,0,0,1-27.83-34.51A1,1,0,0,0,147.36,22.31Z" transform="translate(60.33 417.35)"/><path class="cls-4" d="M221.43,98.51a20,20,0,0,0-4-3.35A26.84,26.84,0,0,0,212,92.75c-2.46-.65-4.45,2.51-2.53,4.34a24,24,0,0,0,4.32,3,21.8,21.8,0,0,0,5.56,2C221.36,102.73,223.06,100,221.43,98.51Z" transform="translate(60.33 417.35)"/><path class="cls-4" d="M219.87,103.46a3.41,3.41,0,0,1-.89-.12l-.73-.21a19.57,19.57,0,0,1-5.13-1.95,24.62,24.62,0,0,1-4.53-3.2,3.63,3.63,0,0,1-.88-4,3.94,3.94,0,0,1,4.56-2.38,24,24,0,0,1,4.93,2.1l.78.41a14.49,14.49,0,0,1,3.4,2.71l.88.83a3.21,3.21,0,0,1,.81,3.59A3.5,3.5,0,0,1,219.87,103.46Zm-8.56-9.58a1.5,1.5,0,0,0-1.32,1,1.15,1.15,0,0,0,.29,1.36A22,22,0,0,0,214.19,99a17.56,17.56,0,0,0,4.71,1.8l1,.24a1,1,0,0,0,.92-.7.74.74,0,0,0-.19-.9c-.31-.28-.61-.58-.92-.88a12.84,12.84,0,0,0-2.82-2.28l-.8-.42a21.21,21.21,0,0,0-4.41-1.9A1.33,1.33,0,0,0,211.31,93.88Z" transform="translate(60.33 417.35)"/><path class="cls-5" d="M54.61-36.93c-2.4-7.12-5.42-14-7.66-21.18-2.59-8.27-3.64-16.68-5.32-25.14-.53-2.65-4.38-1.86-4.51.61C36.3-66.82,40.78-48,49.51-34.77,51.18-32.24,55.67-33.79,54.61-36.93Z" transform="translate(60.33 417.35)"/><path class="cls-5" d="M73.09-2.84A60.28,60.28,0,0,0,68.76-9a58.37,58.37,0,0,0-5.54-5.47c-1.82-1.63-5.09.53-3.55,2.73a64,64,0,0,0,4.59,6A56.33,56.33,0,0,0,70-.48C71.62.88,74.39-.89,73.09-2.84Z" transform="translate(60.33 417.35)"/><path class="cls-5" d="M342.4,231.24c-7.1-2.77-14.43-4-21.88-5.5-3-.6-4.28,3.75-1.28,4.65,7.49,2.26,14.74,4.58,22.53,5.5C344.63,236.23,344.69,232.13,342.4,231.24Z" transform="translate(60.33 417.35)"/><path class="cls-5" d="M598.87,256.67c-10.66-1.05-21.13-.64-31.82-.08a2.18,2.18,0,0,0,0,4.36c10.69.56,21.16,1,31.82-.07A2.11,2.11,0,0,0,598.87,256.67Z" transform="translate(60.33 417.35)"/></g></g></g></svg>