<svg xmlns="http://www.w3.org/2000/svg" viewBox="0 0 305.97 366.38"><defs><style>.cls-1{fill:#231815;}.cls-2{fill:#db7f80;}.cls-3{fill:#dd9380;}.cls-4{fill:#efb3a2;}.cls-5{fill:#313942;}.cls-6{fill:#544a3f;}.cls-7{fill:#f5c744;}.cls-8{fill:#f2b093;}.cls-9{fill:#ea5514;}.cls-10{fill:#7ac8c7;}.cls-11{fill:#1881a9;}.cls-12{fill:#424443;}</style></defs><g id="레이어_2" data-name="레이어 2"><g id="레이어_1-2" data-name="레이어 1"><path class="cls-1" d="M140.72,24.64c3.4,2.88,5.17,7.19,7.69,10.86,7.51,11,21,15.78,32.66,22.23a18.62,18.62,0,0,1,6.23,4.83c1.57,2.13,2.24,5.13,1,7.46a7.74,7.74,0,0,0-4.9-4.47,22.61,22.61,0,0,0-6.77-1c3,1.31,6,3.32,7.38,6.33,2.2,4.8-.22,10.39-2.93,14.92C175,96,166.6,105.55,155.35,109.24c-7,2.31-14.68,2.13-22,1.23-8.19-1-13.66-7.75-18.41-14C106.67,85.67,101.4,73.1,96.08,60.7c-1.85-4.29-1-8.18-.62-12.93.49-6.92,5.2-13,11-16.82s12.62-5.74,19.34-7.48C130.43,22.27,137.07,21.55,140.72,24.64Z"/><circle class="cls-2" cx="92.82" cy="57.82" r="8.2" transform="translate(-9.22 18.5) rotate(-10.85)"/><circle class="cls-2" cx="146.41" cy="33.82" r="8.2" transform="translate(-3.75 28.16) rotate(-10.85)"/><path class="cls-3" d="M140.48,69.11l-8.72-16-12.18,7.61,8.79,25.24A25.66,25.66,0,0,0,140.48,69.11Z"/><path class="cls-1" d="M99,44.9c13.47-10,9.78-26.13,15.65-30.91-.36,3.71,12.89,19.25,26.77,13-.76-1.63-1.54-3.23-2.32-4.74-13.24-26-34.69-15.86-34.69-15.86S75.07,17,89.39,49.85A28.3,28.3,0,0,0,99,44.9Z"/><path class="cls-4" d="M114.65,14C108.78,18.77,112.47,34.93,99,44.9a28.3,28.3,0,0,1-9.61,5l.37.85a44.62,44.62,0,0,0,4.47,9c4.4,7.46,11.22,12.61,20,13.21s19.2-2.41,25.39-9a24.84,24.84,0,0,0,7.13-18.3c-.26-6.14-2.63-12.68-5.37-18.6C127.54,33.24,114.29,17.7,114.65,14Z"/><path class="cls-4" d="M128.37,85.91,132.24,97s2.78,5.17,11.88,2.31S150.19,87,150.19,87l-9.71-17.86A25.66,25.66,0,0,1,128.37,85.91Z"/><path class="cls-5" d="M103.7,46.63c.66,1.46.6,2.92-.13,3.25s-1.87-.59-2.52-2.06-.6-2.92.13-3.25S103,45.16,103.7,46.63Z"/><path class="cls-5" d="M124.23,38.87c.66,1.47.6,2.93-.13,3.26s-1.86-.6-2.52-2.06-.6-2.93.13-3.26S123.57,37.41,124.23,38.87Z"/><path class="cls-5" d="M116.55,47.22c-.39.57-.77,1.13-1.11,1.68s-.67,1.2-.54,1.54c0,.14.2.27.51.36a1.82,1.82,0,0,0,.83.11,2.38,2.38,0,0,0,1.5-1,2.06,2.06,0,0,1-1.37,1.6,2.18,2.18,0,0,1-1.16,0,1.33,1.33,0,0,1-1-.8,1.69,1.69,0,0,1,.17-1.24,4,4,0,0,1,.61-.89A6.5,6.5,0,0,1,116.55,47.22Z"/><path class="cls-5" d="M114.39,56.79a12.42,12.42,0,0,0,2.26.17,5.89,5.89,0,0,0,2.1-.39,4.33,4.33,0,0,0,1.71-1.2,9.68,9.68,0,0,0,1.25-1.87,9.46,9.46,0,0,1-.25,1.15,4.74,4.74,0,0,1-.54,1.08,4,4,0,0,1-1.9,1.54A5.4,5.4,0,0,1,114.39,56.79Z"/><circle class="cls-2" cx="106.73" cy="57.95" r="3.06"/><circle class="cls-2" cx="131.68" cy="46.75" r="3.06"/><path class="cls-1" d="M106.2,7.78s-5.31-6.34-3.42-7.62,3.92,5.42,3.92,5.42-.46-4.62,2-4.44S108.76,6.6,106.2,7.78Z"/><path class="cls-6" d="M254.11,332.4c4.69,4.43,11,12.42,9.7,15.26s-37.83,19.6-39.38,18.68c-3.29-1.93,3.16-16.77,13.24-24.85S254.11,332.4,254.11,332.4Z"/><path class="cls-6" d="M296.11,313.54c4.69,4.44,11,12.42,9.7,15.27S268,348.4,266.42,347.49c-3.29-1.94,3.17-16.78,13.24-24.86S296.11,313.54,296.11,313.54Z"/><path class="cls-7" d="M125.31,110.19c-17.51,9-65.48-7.58-71.25-12.71S7.92,61.81,10,59.25s4.47-10.62,8.06-8.06,53.59,26.75,55.3,29.28S95.17,86.3,110.54,93C125.75,99.62,128.94,108.32,125.31,110.19Z"/><path class="cls-8" d="M16.45,55.05C15.77,52.89,1.39,43.15.14,43.74S6.22,50,6.22,50a2.78,2.78,0,0,0-2,.08h0a10.21,10.21,0,0,1-1.09,2.26c-.53.62,1.07,1.84,1.07,1.84s-2.31-.25-1.07,2C3.55,56.82,19.16,63.66,16.45,55.05Z"/><path class="cls-9" d="M130.72,83.77c4.45,5.67,12.39-5.56,12.39-5.56s18.27-5,29.13,3.47c11.54,9,42.65,99.4,42.23,102.55s-23.78,17.8-36.85,21.11-17.15,3.5-20.47,1-35.34-75.27-35.34-75.27a259.63,259.63,0,0,1-13.35-24.82,30.67,30.67,0,0,1-.14-4.19C108.07,84.19,130.72,83.77,130.72,83.77Z"/><path class="cls-10" d="M293.75,317.72c-.1,5.8-17.59,11.28-19.44,9.39-.79-.8-58-83.91-58-83.91s3.63,8.3,8.64,19.87v0c11.15,25.82,29.06,68,28.6,71.39-.66,4.93-18.19,10-19.85,7.75S164.18,221.63,151.31,191.7c0,0,17.91-91.39,68.05-22.5S293.85,311.92,293.75,317.72Z"/><path class="cls-11" d="M230.77,261.21l-35.89-40.15s12.27,6.49,27.28,23.35C222.16,244.41,225.79,251.42,230.77,261.21Z"/><path class="cls-12" d="M210.73,185.38c-.2,2.51-44.2,29.17-48.27,27.83s-39.71-57.36-38.19-61.71,45.09-37.94,48.56-35.3S211.14,180.21,210.73,185.38Z"/><path class="cls-8" d="M171.36,178.1c-2.69-1.93-19.88,2-19.94,3.3s8.34,2.54,8.34,2.54-16.48,11-16.08,12.33,12.79-4.85,12.79-4.85-12.54,8.47-11.8,9.73S158.88,194,158.88,194s-11.49,8.72-9.35,9.46c.79.28,11.3-7,11.3-7s-6.67,6.28-6.07,6.88,7.31-3.76,12.09-8.32,14.49-14.21,14.26-15.08a57.7,57.7,0,0,0-3.33-5.63Z"/><path class="cls-7" d="M169.76,78.64c18.38,9.42,34.91,59.65,35.2,68.09s-28.93,44.6-32.17,44.46-12.45-6.89-13.08-11.73,19.33-35.3,20-38.46S169,118,163.23,100.13C157.56,82.42,166,76.69,169.76,78.64Z"/></g></g></svg>